<?xml version="1.0" encoding="utf-8"?>
<!-- Generator: Adobe Illustrator 21.0.0, SVG Export Plug-In . SVG Version: 6.00 Build 0)  -->
<svg version="1.1" id="Layer_1" xmlns="http://www.w3.org/2000/svg" xmlns:xlink="http://www.w3.org/1999/xlink" x="0px" y="0px"
	 width="240px" height="95px" viewBox="0 0 240 95" style="enable-background:new 0 0 240 95;" xml:space="preserve">
<style type="text/css">
	.st0{fill:none;stroke:#000000;stroke-width:1.5;stroke-linecap:round;stroke-linejoin:round;stroke-miterlimit:10;}
	.st1{fill:#265694;}
	.st2{fill:#17345B;}
	.st3{fill:#61A1D5;}
	.st4{fill:#A6CDED;}
	.st5{fill:#E17426;}
	.st6{fill:#F79420;}
	.st7{fill:#429444;}
	.st8{fill:#F2F3F4;}
	.st9{fill:#ECEBEB;}
	.st10{fill:#D7D7D7;}
	.st11{fill:#3A3A3A;}
	.st12{fill:#BBD531;}
	.st13{fill:#FDBB16;}
	.st14{fill:#FCD900;}
	.st15{fill:none;stroke:#61A1D5;stroke-width:1.2;stroke-linecap:round;stroke-linejoin:round;stroke-miterlimit:10;}
	.st16{fill:none;stroke:#265694;stroke-miterlimit:10;}
	.st17{fill:#FFFFFF;}
	.st18{fill:none;stroke:#D7D7D7;stroke-miterlimit:10;}
</style>
<g>
	<path d="M87.3,280.9h-2.8c0-1.3-0.2-2.5-0.5-3.7h1.7c0.3,0,0.5-0.2,0.5-0.5s-0.2-0.5-0.5-0.5h-2c-0.3-0.9-0.7-1.7-1.2-2.4
		c-0.2-0.2-0.5-0.3-0.8-0.1c-0.2,0.2-0.3,0.5-0.1,0.8c0.3,0.5,0.7,1.1,0.9,1.7H80v-2.5c0-0.3-0.2-0.5-0.5-0.5s-0.5,0.2-0.5,0.5v2.5
		h-2.5c0.3-0.7,0.6-1.3,0.9-1.7c0.2-0.2,0.1-0.6-0.1-0.8c-0.1-0.1-0.3-0.1-0.4-0.1c-0.1,0-0.3,0.1-0.4,0.2c-0.5,0.7-0.9,1.5-1.2,2.4
		h-2c-0.3,0-0.5,0.2-0.5,0.5s0.2,0.5,0.5,0.5h1.7c-0.3,1.1-0.5,2.4-0.5,3.7h-2.8c-0.3,0-0.5,0.2-0.5,0.5s0.2,0.5,0.5,0.5h2.8
		c0,1.3,0.2,2.5,0.5,3.7h-1.7c-0.3,0-0.5,0.2-0.5,0.5s0.2,0.5,0.5,0.5h2c0.3,0.9,0.7,1.7,1.2,2.4c0.2,0.2,0.5,0.3,0.8,0.1
		c0.1-0.1,0.2-0.2,0.2-0.4c0-0.1,0-0.3-0.1-0.4c-0.3-0.5-0.7-1.1-0.9-1.7h2.5v2.5c0,0.3,0.2,0.5,0.5,0.5s0.5-0.2,0.5-0.5v-2.5h2.5
		c-0.3,0.7-0.6,1.3-0.9,1.7c-0.2,0.2-0.1,0.6,0.1,0.8c0.2,0.2,0.6,0.1,0.8-0.1c0.5-0.7,0.9-1.5,1.2-2.4h2c0.3,0,0.5-0.2,0.5-0.5
		s-0.2-0.5-0.5-0.5H84c0.3-1.1,0.5-2.4,0.5-3.7h2.8c0.3,0,0.5-0.2,0.5-0.5S87.6,280.9,87.3,280.9z M83.4,282c0,1.3-0.2,2.6-0.5,3.7
		H80V282H83.4z M80,280.9v-3.7h2.8c0.3,1.1,0.5,2.4,0.5,3.7H80z M78.9,277.2v3.7h-3.4c0-1.3,0.2-2.6,0.5-3.7H78.9z M78.9,282v3.7
		h-2.8c-0.3-1.1-0.5-2.4-0.5-3.7H78.9z M77.1,289.1L77.1,289.1L77.1,289.1L77.1,289.1z"/>
	<path d="M88.9,287.5c1.2-1.8,1.8-3.9,1.8-6.1c0-3-1.2-5.8-3.3-8c-2.1-2.1-4.9-3.3-8-3.3c-3,0-5.8,1.2-8,3.3c-2.1,2.1-3.3,5-3.3,8
		s1.2,5.8,3.3,8c2.1,2.1,4.9,3.3,8,3.3c2.2,0,4.3-0.6,6.1-1.8l3.9,1.3c0.2,0.1,0.5,0,0.6-0.1c0.2-0.2,0.2-0.4,0.1-0.6L88.9,287.5z
		 M87.7,287.6l1,3.1l-3.1-1c-0.2-0.1-0.4,0-0.5,0.1c-1.7,1.1-3.6,1.7-5.7,1.7c-5.5,0-10-4.5-10-10s4.5-10,10-10s10,4.5,10,10
		c0,2-0.6,4-1.7,5.7C87.7,287.2,87.6,287.4,87.7,287.6z"/>
</g>
<polyline class="st0" points="-196,487 -192.6,490.5 -189.1,487 "/>
<rect x="-230.7" y="531.4" class="st1" width="19.1" height="19.1"/>
<rect x="-211.6" y="531.4" class="st2" width="19.1" height="19.1"/>
<rect x="-192.6" y="531.4" class="st3" width="19.1" height="19.1"/>
<rect x="-173.5" y="531.4" class="st4" width="19.1" height="19.1"/>
<rect x="-230.7" y="550.5" class="st5" width="19.1" height="19.1"/>
<rect x="-211.6" y="550.5" class="st6" width="19.1" height="19.1"/>
<rect x="-230.7" y="569.5" class="st7" width="19.1" height="19.1"/>
<rect x="-230.7" y="588.6" class="st8" width="19.1" height="19.1"/>
<rect x="-211.6" y="588.6" class="st9" width="19.1" height="19.1"/>
<rect x="-192.6" y="588.6" class="st10" width="19.1" height="19.1"/>
<rect x="-173.5" y="588.6" class="st11" width="19.1" height="19.1"/>
<rect x="-211.6" y="569.5" class="st12" width="19.1" height="19.1"/>
<rect x="-192.6" y="550.5" class="st13" width="19.1" height="19.1"/>
<rect x="-173.5" y="550.5" class="st14" width="19.1" height="19.1"/>
<g>
	<g>
		<path d="M77,335.4c-3.5,0-6.6,2-8.1,5c1.5,3,4.5,5,8.1,5c3.5,0,6.6-2,8.1-5C83.6,337.4,80.6,335.4,77,335.4z M81,338
			c0.9,0.6,1.8,1.4,2.4,2.4c-0.6,1-1.4,1.8-2.4,2.4c-1.2,0.8-2.6,1.2-4,1.2c-1.4,0-2.8-0.4-4-1.2c-0.9-0.6-1.8-1.4-2.4-2.4
			c0.6-1,1.4-1.8,2.4-2.4c0.1,0,0.1-0.1,0.2-0.1c-0.2,0.4-0.2,0.9-0.2,1.4c0,2.2,1.8,4,4,4c2.2,0,4-1.8,4-4c0-0.5-0.1-0.9-0.2-1.4
			C80.9,338,81,338,81,338z M77,338.8c0,0.8-0.7,1.5-1.5,1.5s-1.5-0.7-1.5-1.5c0-0.8,0.7-1.5,1.5-1.5S77,338,77,338.8z"/>
	</g>
</g>
<path d="M239.2,292.2l-5.7-5.7c0,0,0,0,0,0c1.5-1.7,2.4-3.9,2.4-6.3c0-5.2-4.2-9.5-9.5-9.5c-5.2,0-9.5,4.2-9.5,9.5
	c0,5.2,4.2,9.5,9.5,9.5c2.4,0,4.6-0.9,6.3-2.4c0,0,0,0,0,0l5.7,5.7c0.1,0.1,0.3,0.2,0.4,0.2s0.3-0.1,0.4-0.2
	C239.4,292.8,239.4,292.4,239.2,292.2z M226.4,288.5c-4.6,0-8.3-3.7-8.3-8.3s3.7-8.3,8.3-8.3c4.6,0,8.3,3.7,8.3,8.3
	S230.9,288.5,226.4,288.5z"/>
<g>
	<path class="st3" d="M-222.6,494.4c4.6,0,8.3,3.7,8.3,8.3s-3.7,8.3-8.3,8.3s-8.3-3.7-8.3-8.3S-227.2,494.4-222.6,494.4
		 M-222.6,493.2c-5.2,0-9.5,4.2-9.5,9.5s4.2,9.5,9.5,9.5s9.5-4.2,9.5-9.5S-217.4,493.2-222.6,493.2L-222.6,493.2z"/>
</g>
<line class="st15" x1="-210.2" y1="515.1" x2="-215.9" y2="509.4"/>
<g id="bfrKGZ.tif">
	
		<image style="overflow:visible;" width="648" height="640" id="Layer_0_1_" xlink:href="B8EF4FEEA7213883.png"  transform="matrix(0.5 0 0 0.5 1006.5004 340.4037)">
	</image>
</g>
<path d="M135.5,279.4h2.8V276h-2.8c-2.3,0-4.2,2-4.2,4.5v1.7h-2.8v3.4h2.8v8.3h3.5v-8.3h3.5v-3.4h-3.5v-1.8
	C134.8,279.8,135.2,279.4,135.5,279.4z"/>
<path d="M183.2,275.5c-0.8,0.4-1.7,0.6-2.6,0.7c0.9-0.6,1.6-1.4,2-2.5c-0.9,0.5-1.8,0.9-2.8,1.1c-0.8-0.9-2-1.4-3.2-1.4
	c-2.5,0-4.4,2-4.4,4.4c0,0.3,0,0.7,0.1,1c-3.7-0.2-7-2-9.2-4.6c-0.4,0.7-0.6,1.4-0.6,2.2c0,1.5,0.8,2.9,2,3.7c-0.7,0-1.4-0.2-2-0.6
	c0,0,0,0,0,0.1c0,2.2,1.5,4,3.6,4.4c-0.4,0.1-0.8,0.2-1.2,0.2c-0.3,0-0.6,0-0.8-0.1c0.6,1.8,2.2,3.1,4.2,3.1
	c-1.5,1.2-3.4,1.9-5.5,1.9c-0.4,0-0.7,0-1.1-0.1c2,1.3,4.3,2,6.8,2c8.2,0,12.7-6.8,12.7-12.7c0-0.2,0-0.4,0-0.6
	C181.9,277.1,182.6,276.4,183.2,275.5z"/>
<g>
	<path class="st16" d="M1060.3,533.6c-0.7-2-1.5-4-2.4-6c-1.2-2.7-3.5-5.7-6-6.7c-6.2-2.5-10.4-7-14.4-11.9
		c-1.8-2.2-3.6-5.5-5.8-5.9c-5.8-1.1-8.5-5.5-12-9.1c-1.5-1.6-2-4.1-3.3-7.1c3.1,0,4.9,0,6.7,0c22.8-0.1,45.6-0.4,68.4-0.3
		c5,0,6.4-1.2,6.4-6.3c0.2-37.1,0-79.7,0.5-116.9h69.1c0.2,15.3,0.2,36.1,0.3,51.4c0,3.3,0.8,5.5,4,6.5c7.5,2.4,14.9,5.2,22.5,7.2
		c4.4,1.2,9.4,1,13.8,1.8c11,1.9,22.5,2.2,32.6,7.8c0.4,0.2,1,0.2,1.4,0.2c7.4-0.8,14.8-2.6,22.1-2.2c9.7,0.5,19.5,1.9,28.8,4.5
		c10.5,3,10.2,3.8,10.4,14.7c0.3,15.3-2.9,30.2,6.5,43.9c1.4,2-0.5,4.8,0.8,6.8l4.3,5.7c-0.5,3.4-3.2,9.6-3.7,12.9
		c0,0-0.2,4-0.4,5.4c-0.4,2.9-0.9,5.7-1.4,8.6c-0.4,2.3-0.8,4.4-1.6,6.4c-0.8,0-1.6,0-2.4,0c-1.5,1.7-1,3.1-3.9,3.8
		c-4,1-7.7,3.1-11.6,4.6c-0.4,0.2-0.9,0-1.4,0c0.7-1-4.4,1.9-5.3,2.3c-4.9,2.2-5.3,8-9.2,10.6c-6.7,4.4-13.6,8.4-21.1,13
		c-6.1,0.3-9.1,0.3-11.3,1.9c-1.2,2.7-2.3,5.6-3.9,8.2c-2.8,4.7-6.3,9-9,13.7c-1.8,3.2-1.6,8.6-3.8,13.8c-0.4,1-1.2,2.4-0.8,3.2
		c3.1,6.9,1.7,15.5,8,21.2c0.6,0.5,0.3,2.1,0.4,3.5c-3.7,0-7.2,0.6-10.3-0.1c-8.4-2-16.5-4.7-24.8-7c-6.4-1.8-11-5.1-12.8-11.9
		c-0.8-3-2.5-5.8-4-8.5c-7.5-13.5-16.7-26.4-22.2-40.7c-4.9-12.8-15-20.2-23.1-29.8c-0.5-0.6-1.8-0.8-2.8-0.9
		c-2.4-0.1-4.8-0.6-7.2-1c-4.3,0-8.6,0-12.9,0c-0.8,0.3-1.7,0.6-2.5,1.1c-3.8,2-5.7,3.6-6.4,7.4c-0.3,1.5-0.5,3-0.8,4.4
		c-1.7,7.6-6.7,10.1-13.5,6.6c-6.2-3.2-12.4-6.3-18.2-10.1c-2.6-1.7-4.9-4.5-6.1-7.3c-0.4-0.9-0.8-1.9-1.2-2.8
		c-0.8-0.6-1.7-1.5-2.3-2.9c-0.7-1.9-0.4-3.6-0.3-4.2C1061.5,536.8,1061.4,535.6,1060.3,533.6z"/>
</g>
<path class="st12" d="M1240.1,452.4c-3.9,0-7,3.1-7,7c0,1.3,0.3,2.5,1,3.5c0.3,0.5,0.7,1,1.1,1.4l0.1,0.1l4.9,4.9l4.9-4.9l0.1-0.1
	c0.4-0.4,0.8-0.9,1.1-1.4c0.6-1,1-2.2,1-3.5C1247.1,455.5,1244,452.4,1240.1,452.4z M1240.1,462.1c-1.5,0-2.7-1.2-2.7-2.7
	s1.2-2.7,2.7-2.7c1.5,0,2.7,1.2,2.7,2.7S1241.6,462.1,1240.1,462.1z"/>
<path class="st17" d="M1220.1,511.5c-3.9,0-7,3.1-7,7c0,1.3,0.3,2.5,1,3.5c0.3,0.5,0.7,1,1.1,1.4l0.1,0.1l4.9,4.9l4.9-4.9l0.1-0.1
	c0.4-0.4,0.8-0.9,1.1-1.4c0.6-1,1-2.2,1-3.5C1227.1,514.7,1224,511.5,1220.1,511.5z M1220.1,521.3c-1.5,0-2.7-1.2-2.7-2.7
	s1.2-2.7,2.7-2.7c1.5,0,2.7,1.2,2.7,2.7S1221.6,521.3,1220.1,521.3z"/>
<path class="st12" d="M1201.3,539.5c-3.9,0-7,3.1-7,7c0,1.3,0.3,2.5,1,3.5c0.3,0.5,0.7,1,1.1,1.4l0.1,0.1l4.9,4.9l4.9-4.9l0.1-0.1
	c0.4-0.4,0.8-0.9,1.1-1.4c0.6-1,1-2.2,1-3.5C1208.3,542.6,1205.1,539.5,1201.3,539.5z M1201.3,549.2c-1.5,0-2.7-1.2-2.7-2.7
	s1.2-2.7,2.7-2.7c1.5,0,2.7,1.2,2.7,2.7S1202.8,549.2,1201.3,549.2z"/>
<path class="st12" d="M1272.4,531c-3.9,0-7,3.1-7,7c0,1.3,0.3,2.5,1,3.5c0.3,0.5,0.7,1,1.1,1.4l0.1,0.1l4.9,4.9l4.9-4.9l0.1-0.1
	c0.4-0.4,0.8-0.9,1.1-1.4c0.6-1,1-2.2,1-3.5C1279.5,534.2,1276.3,531,1272.4,531z M1272.4,540.7c-1.5,0-2.7-1.2-2.7-2.7
	s1.2-2.7,2.7-2.7c1.5,0,2.7,1.2,2.7,2.7S1273.9,540.7,1272.4,540.7z"/>
<g>
	<g>
		<path class="st1" d="M367.9,295.3c-0.7-2-1.5-4-2.4-6c-1.2-2.7-3.5-5.7-6-6.7c-6.2-2.5-10.4-7-14.4-11.9c-1.8-2.2-3.6-5.5-5.8-5.9
			c-5.8-1.1-8.5-5.5-12-9.1c-1.5-1.6-2-4.1-3.3-7.1c3.1,0,4.9,0,6.7,0c22.8-0.1,45.6-0.4,68.4-0.3c5,0,6.4-1.2,6.4-6.3
			c0.2-37.1,0-79.7,0.5-116.9h69.1c0.2,15.3,0.2,36.1,0.3,51.4c0,3.3,0.8,5.5,4,6.5c7.5,2.4,14.9,5.2,22.5,7.2
			c4.4,1.2,9.4,1,13.8,1.8c11,1.9,22.5,2.2,32.6,7.8c0.4,0.2,1,0.2,1.4,0.2c7.4-0.8,14.8-2.6,22.1-2.2c9.7,0.5,19.5,1.9,28.8,4.5
			c10.5,3,10.2,3.8,10.4,14.7c0.3,15.3-2.9,30.2,6.5,43.9c1.4,2-0.5,4.8,0.8,6.8l4.3,5.7c-0.5,3.4-3.2,9.6-3.7,12.9
			c0,0-0.2,4-0.4,5.4c-0.4,2.9-0.9,5.7-1.4,8.6c-0.4,2.3-0.8,4.4-1.6,6.4c-0.8,0-1.6,0-2.4,0c-1.5,1.7-1,3.1-3.9,3.8
			c-4,1-7.7,3.1-11.6,4.6c-0.4,0.2-0.9,0-1.4,0c0.7-1-4.4,1.9-5.3,2.3c-4.9,2.2-5.3,8-9.2,10.6c-6.7,4.4-13.6,8.4-21.1,13
			c-6.1,0.3-9.1,0.3-11.3,1.9c-1.2,2.7-2.3,5.6-3.9,8.2c-2.8,4.7-6.3,9-9,13.7c-1.8,3.2-1.6,8.6-3.8,13.8c-0.4,1-1.2,2.4-0.8,3.2
			c3.1,6.9,1.7,15.5,8,21.2c0.6,0.5,0.3,2.1,0.4,3.5c-3.7,0-7.2,0.6-10.3-0.1c-8.4-2-16.5-4.7-24.8-7c-6.4-1.8-11-5.1-12.8-11.9
			c-0.8-3-2.5-5.8-4-8.5c-7.5-13.5-16.7-26.4-22.2-40.7c-4.9-12.8-15-20.2-23.1-29.8c-0.5-0.6-1.8-0.8-2.8-0.9
			c-2.4-0.1-4.8-0.6-7.2-1c-4.3,0-8.6,0-12.9,0c-0.8,0.3-1.7,0.6-2.5,1.1c-3.8,2-5.7,3.6-6.4,7.4c-0.3,1.5-0.5,3-0.8,4.4
			c-1.7,7.6-6.7,10.1-13.5,6.6c-6.2-3.2-12.4-6.3-18.2-10.1c-2.6-1.7-4.9-4.5-6.1-7.3c-0.4-0.9-0.8-1.9-1.2-2.8
			c-0.8-0.6-1.7-1.5-2.3-2.9c-0.7-1.9-0.4-3.6-0.3-4.2C369.1,298.5,369.1,297.3,367.9,295.3z"/>
	</g>
	<path class="st12" d="M547.7,214.1c-3.9,0-7,3.1-7,7c0,1.3,0.3,2.5,1,3.5c0.3,0.5,0.7,1,1.1,1.4l0.1,0.1l4.9,4.9l4.9-4.9l0.1-0.1
		c0.4-0.4,0.8-0.9,1.1-1.4c0.6-1,1-2.2,1-3.5C554.8,217.3,551.6,214.1,547.7,214.1z M547.7,223.8c-1.5,0-2.7-1.2-2.7-2.7
		s1.2-2.7,2.7-2.7s2.7,1.2,2.7,2.7S549.2,223.8,547.7,223.8z"/>
	<path class="st12" d="M527.7,273.3c-3.9,0-7,3.1-7,7c0,1.3,0.3,2.5,1,3.5c0.3,0.5,0.7,1,1.1,1.4l0.1,0.1l4.9,4.9l4.9-4.9l0.1-0.1
		c0.4-0.4,0.8-0.9,1.1-1.4c0.6-1,1-2.2,1-3.5C534.8,276.4,531.6,273.3,527.7,273.3z M527.7,283c-1.5,0-2.7-1.2-2.7-2.7
		s1.2-2.7,2.7-2.7s2.7,1.2,2.7,2.7S529.2,283,527.7,283z"/>
	<path class="st12" d="M508.9,301.2c-3.9,0-7,3.1-7,7c0,1.3,0.3,2.5,1,3.5c0.3,0.5,0.7,1,1.1,1.4l0.1,0.1l4.9,4.9l4.9-4.9l0.1-0.1
		c0.4-0.4,0.8-0.9,1.1-1.4c0.6-1,1-2.2,1-3.5C515.9,304.4,512.8,301.2,508.9,301.2z M508.9,310.9c-1.5,0-2.7-1.2-2.7-2.7
		s1.2-2.7,2.7-2.7s2.7,1.2,2.7,2.7S510.4,310.9,508.9,310.9z"/>
	<path class="st12" d="M580.1,292.7c-3.9,0-7,3.1-7,7c0,1.3,0.3,2.5,1,3.5c0.3,0.5,0.7,1,1.1,1.4l0.1,0.1l4.9,4.9l4.9-4.9l0.1-0.1
		c0.4-0.4,0.8-0.9,1.1-1.4c0.6-1,1-2.2,1-3.5C587.1,295.9,584,292.7,580.1,292.7z M580.1,302.5c-1.5,0-2.7-1.2-2.7-2.7
		s1.2-2.7,2.7-2.7s2.7,1.2,2.7,2.7S581.6,302.5,580.1,302.5z"/>
</g>
<g>
	<path d="M38.2,277.1c0.4,0,0.8-0.1,1-0.4s0.4-0.5,0.4-0.8c0-0.3-0.1-0.5-0.2-0.7c-0.1-0.2-0.4-0.3-0.8-0.3c-0.5,0-0.9,0.1-1.1,0.4
		s-0.3,0.5-0.3,0.8c0,0.3,0.1,0.5,0.2,0.7C37.5,277,37.8,277.1,38.2,277.1z"/>
	<path d="M38.7,283c-0.2,0.1-0.4,0.1-0.4,0.1c-0.1,0-0.1,0-0.1-0.1c0-0.1,0-0.2,0.1-0.5l0.7-2.6c0.1-0.5,0.2-0.9,0.1-1.1
		s-0.2-0.4-0.5-0.4c-0.3,0-0.8,0.1-1.4,0.4c-0.6,0.3-1.3,0.7-1.9,1.2l0.3,0.4c0.2-0.1,0.4-0.3,0.7-0.4c0.3-0.1,0.5-0.2,0.5-0.2
		c0.1,0,0.1,0,0.1,0.1s0,0.2-0.1,0.4l-0.6,2.5c-0.2,0.7-0.2,1.2-0.1,1.4c0.1,0.2,0.3,0.3,0.6,0.3c0.3,0,0.7-0.1,1.3-0.4
		s1.2-0.7,1.8-1.3l-0.3-0.4C39.1,282.7,38.9,282.9,38.7,283z"/>
	<path d="M45,276.9c-0.4-1-1-1.8-1.7-2.5s-1.5-1.3-2.5-1.7c-1-0.4-2-0.6-3.1-0.6s-2.1,0.2-3.1,0.6c-1,0.4-1.8,1-2.5,1.7
		s-1.3,1.5-1.7,2.5c-0.4,1-0.6,2-0.6,3.1s0.2,2.1,0.6,3.1c0.4,1,1,1.8,1.7,2.5s1.5,1.3,2.5,1.7c1,0.4,2,0.6,3.1,0.6s2.1-0.2,3.1-0.6
		c1-0.4,1.8-1,2.5-1.7s1.3-1.5,1.7-2.5c0.4-1,0.6-2,0.6-3.1S45.5,277.9,45,276.9z M37.8,287.1c-3.9,0-7.1-3.2-7.1-7.1
		s3.2-7.1,7.1-7.1c3.9,0,7.1,3.2,7.1,7.1S41.7,287.1,37.8,287.1z"/>
</g>
<path d="M45,300.4c-0.4-1-1-1.8-1.7-2.5s-1.5-1.3-2.5-1.7c-1-0.4-2-0.6-3.1-0.6s-2.1,0.2-3.1,0.6c-1,0.4-1.8,1-2.5,1.7
	s-1.3,1.5-1.7,2.5c-0.4,1-0.6,2-0.6,3.1s0.2,2.1,0.6,3.1c0.4,1,1,1.8,1.7,2.5s1.5,1.3,2.5,1.7c1,0.4,2,0.6,3.1,0.6s2.1-0.2,3.1-0.6
	c1-0.4,1.8-1,2.5-1.7s1.3-1.5,1.7-2.5c0.4-1,0.6-2,0.6-3.1S45.5,301.4,45,300.4z M37.5,298.9c0.2-0.3,0.6-0.4,1.1-0.4
	c0.4,0,0.6,0.1,0.8,0.3c0.1,0.2,0.2,0.4,0.2,0.7c0,0.3-0.1,0.6-0.4,0.8s-0.6,0.4-1,0.4c-0.4,0-0.6-0.1-0.8-0.3
	c-0.2-0.2-0.3-0.4-0.2-0.7C37.1,299.4,37.2,299.2,37.5,298.9z M37.9,307.8c-0.6,0.3-1,0.4-1.3,0.4c-0.3,0-0.5-0.1-0.6-0.3
	c-0.1-0.2-0.1-0.7,0.1-1.4l0.6-2.5c0.1-0.2,0.1-0.3,0.1-0.4s0-0.1-0.1-0.1c-0.1,0-0.2,0.1-0.5,0.2c-0.3,0.1-0.5,0.2-0.7,0.4
	l-0.3-0.4c0.6-0.5,1.3-0.9,1.9-1.2c0.6-0.3,1.1-0.4,1.4-0.4c0.3,0,0.4,0.1,0.5,0.4s0,0.7-0.1,1.1l-0.7,2.6c-0.1,0.2-0.1,0.4-0.1,0.5
	c0,0.1,0.1,0.1,0.1,0.1c0.1,0,0.2,0,0.4-0.1c0.2-0.1,0.5-0.2,0.7-0.4l0.3,0.4C39.1,307.1,38.5,307.5,37.9,307.8z"/>
<g>
	<g>
		<path class="st3" d="M14.5,57.7c-0.2-0.7-0.5-1.3-0.8-1.9c-0.4-0.9-1.1-1.8-1.9-2.2c-2-0.8-3.3-2.3-4.7-3.8
			C6.5,49.1,6,48,5.3,47.9c-1.9-0.3-2.8-1.8-3.9-2.9c-0.5-0.5-0.6-1.3-1.1-2.3c1,0,1.6,0,2.2,0c7.4,0,14.7-0.1,22.1-0.1
			c1.6,0,2.1-0.4,2.1-2c0.1-12,0.2-24,0.4-36h22c0.1,4.9,0.2,9.9,0.2,14.8c0,1.1,0.3,1.8,1.3,2.1c2.4,0.8,4.8,1.7,7.3,2.3
			c1.4,0.4,3,0.3,4.4,0.6c3.5,0.6,7.3,0.7,10.5,2.5c0.1,0.1,0.3,0.1,0.5,0c2.4-0.3,4.8-0.8,7.1-0.7c3.1,0.2,6.3,0.6,9.3,1.5
			c3.4,1,3.3,1.2,3.4,4.7c0.1,4.9-0.6,10,2.5,14.4c0.4,0.6,0.9,1.3,1.3,2V52c-0.2,1.1-0.3,2.2-0.5,3.2c0,0,0.1,0.8,0,1.3
			c-0.1,0.9-0.3,1.9-0.4,2.8c-0.1,0.7-0.3,1.4-0.5,2.1c-0.3,0-0.5,0-0.8,0c-0.5,0.6-1.1,1-2.1,1.2c-1.3,0.3-2.5,1-3.7,1.5
			c-0.1,0-0.3,0-0.5,0c0.2-0.3-1.4,0.6-1.7,0.7c-1.6,0.7-1.7,2.6-3,3.4c-2.2,1.4-4.4,2.7-6.8,4.2c-2,0.1-2.9,0.1-3.7,0.6
			c-0.4,0.9-0.7,1.8-1.2,2.7c-0.9,1.5-2,2.9-2.9,4.4c-0.6,1-0.5,2.8-1.2,4.5c-0.1,0.3-0.4,0.8-0.3,1c1,2.2,0.5,5,2.6,6.9
			c0.2,0.2,0.1,0.7,0.1,1.1c-1.2,0-2.3,0.2-3.3,0c-2.7-0.7-5.3-1.5-8-2.3c-2.1-0.6-3.6-1.6-4.1-3.8c-0.2-1-0.8-1.9-1.3-2.7
			c-2.4-4.4-5.4-8.5-7.2-13.1c-1.6-4.1-4.9-6.5-7.5-9.6c-0.2-0.2-0.6-0.3-0.9-0.3c-0.8,0-1.6-0.2-2.3-0.3c-1.4,0-2.8,0-4.2,0
			c-0.3,0.1-0.5,0.2-0.8,0.4c-1.2,0.7-1.8,1.2-2.1,2.4c-0.1,0.5-0.2,1-0.3,1.4c-0.6,2.5-2.2,3.3-4.3,2.1c-2-1-4-2-5.9-3.3
			c-0.8-0.5-1.6-1.5-2-2.4c-0.1-0.3-0.3-0.6-0.4-0.9c-0.2-0.2-0.5-0.5-0.7-0.9c-0.2-0.6-0.1-1.1-0.1-1.3
			C14.9,58.8,14.9,58.4,14.5,57.7z"/>
	</g>
	<g>
		<path class="st3" d="M231.2,17.3c-4.5,0-8.3-3.6-8.3-8c0-4.4,3.8-8,8.3-8c4.6,0,8.4,3.6,8.4,8C239.7,13.7,235.9,17.3,231.2,17.3
			 M231.2,37.6c-4.5,0-8.3-3.6-8.3-8c0-4.4,3.8-8,8.3-8c4.6,0,8.4,3.6,8.4,8C239.7,34,235.9,37.6,231.2,37.6"/>
		<polygon class="st17" points="128.1,36.8 116,21.1 116,36.8 106.9,36.8 106.9,2.1 116,2.1 116,17 128.1,2.1 139.2,2.1 125.1,18.8 
			140,36.8 		"/>
		<rect x="142.6" y="2.1" class="st17" width="9.1" height="34.7"/>
		<path class="st17" d="M177.7,14c0,3.5-2.6,5.4-6.6,5.4c-0.8,0-2.1-0.1-2.8-0.2V8.9c0.8-0.1,2.2-0.1,3.2-0.1
			C175.7,8.8,177.7,11.1,177.7,14 M187.4,13.5c0-7.4-5.5-11.6-15.2-11.6c-4.5,0-9.7,0.1-13,0.2v34.7h9.1V26.1c0.8,0.1,2.3,0.1,3,0.1
			C180.7,26.2,187.4,21.3,187.4,13.5"/>
		<path class="st17" d="M208.9,14c0,3.5-2.6,5.4-6.6,5.4c-0.8,0-2.1-0.1-2.8-0.2V8.9c0.8-0.1,2.2-0.1,3.2-0.1
			C206.8,8.8,208.9,11.1,208.9,14 M218.5,13.5c0-7.4-5.5-11.6-15.2-11.6c-4.5,0-9.7,0.1-13,0.2v34.7h9.1V26.1c0.8,0.1,2.3,0.1,3,0.1
			C211.8,26.2,218.5,21.3,218.5,13.5"/>
	</g>
	<path class="st17" d="M122.9,49.6v24.8h-9V49.6h-7v-7.7h23v7.7H122.9z"/>
	<path class="st17" d="M132.6,74.5V41.9h19v7.6h-10.1v4.6h7.5v7.3h-7.5v5.3h10.1v7.8H132.6z"/>
	<path class="st17" d="M205.8,74.5l-1.7-5.3h-10l-1.6,5.3h-8.9l9.7-32.5h12.1l10.2,32.5H205.8z M199,50.7l-2.5,11.4h5.8l-2.6-11.4
		L199,50.7z"/>
	<path class="st17" d="M239.7,63.8c0,1.6-0.3,3.1-1,4.5c-0.7,1.4-1.6,2.6-2.8,3.6c-1.2,1-2.6,1.8-4.2,2.4c-1.6,0.6-3.4,0.9-5.4,0.9
		c-1.6,0-3.1-0.1-4.4-0.2c-1.3-0.1-2.5-0.3-3.7-0.6l0-8.8c1.1,0.5,3,1.1,4.2,1.4c1.2,0.3,2.6,0.4,4,0.4c0.9,0,1.6-0.2,2.2-0.6
		c0.6-0.4,0.9-1,0.9-1.7c0-0.8-0.3-1.4-0.9-1.8c-0.6-0.5-1.3-0.8-2.2-1.2c-0.9-0.3-1.9-0.7-2.9-1.1c-1.1-0.4-2-1-2.9-1.7
		c-0.9-0.7-1.6-1.6-2.2-2.8c-0.6-1.1-0.9-2.6-0.9-4.5c0-3.2,1.2-5.8,3.5-7.7c2.4-1.9,5.7-2.9,10-2.9c0.8,0,1.8,0,2.9,0.1
		c1.1,0.1,2.1,0.3,3.1,0.5l-0.1,8c-0.9-0.3-2.5-0.8-3.4-1c-0.9-0.2-1.8-0.2-2.8-0.2c-1.3,0-2.2,0.2-2.7,0.6
		c-0.6,0.4-0.8,0.9-0.8,1.6c0,0.7,0.3,1.2,0.9,1.7c0.6,0.4,1.4,0.8,2.3,1.2c0.9,0.4,1.9,0.8,3,1.2c1.1,0.5,2.1,1,3,1.8
		c0.9,0.7,1.7,1.7,2.3,2.8C239.4,60.6,239.7,62.1,239.7,63.8z"/>
	<g>
		<path class="st17" d="M114.3,82.9c0,0.5-0.1,1-0.3,1.5c-0.2,0.5-0.5,0.9-0.8,1.2c-0.4,0.4-0.8,0.6-1.3,0.8
			c-0.5,0.2-1.2,0.3-1.8,0.3c-0.1,0-0.2,0-0.3,0c-0.1,0-0.2,0-0.3,0v3.6h-2.5V79.5c0.5,0,1,0,1.5-0.1c0.5,0,1,0,1.6,0
			c1.4,0,2.5,0.3,3.2,0.9C113.9,81,114.3,81.8,114.3,82.9z M111.7,83.1c0-0.5-0.1-0.8-0.4-1.1c-0.3-0.3-0.7-0.4-1.3-0.4
			c-0.1,0-0.2,0-0.3,0c-0.1,0-0.2,0-0.3,0v3.2c0.1,0,0.2,0,0.2,0c0.1,0,0.1,0,0.2,0c0.5,0,1-0.2,1.3-0.4
			C111.5,84,111.7,83.6,111.7,83.1z"/>
		<path class="st17" d="M124.4,89.5c-0.8,0.7-1.9,1.1-3.4,1.1c-0.9,0-1.6-0.1-2.1-0.3s-1-0.5-1.3-0.9c-0.3-0.4-0.5-0.8-0.7-1.3
			c-0.1-0.5-0.2-1-0.2-1.6v-7h2.5v6.9c0,0.3,0,0.6,0.1,0.9c0.1,0.3,0.2,0.5,0.3,0.7c0.1,0.2,0.3,0.3,0.6,0.4c0.3,0.1,0.6,0.1,1,0.1
			c0.7,0,1.2-0.2,1.5-0.5c0.3-0.3,0.5-0.9,0.5-1.7v-6.7h2.5v6.6C125.7,87.7,125.3,88.8,124.4,89.5z"/>
		<path class="st17" d="M137,87c0,0.4-0.1,0.9-0.2,1.3c-0.2,0.4-0.4,0.8-0.8,1.1c-0.4,0.3-0.8,0.6-1.4,0.8c-0.6,0.2-1.2,0.3-2.1,0.3
			c-0.3,0-0.8,0-1.4,0c-0.6,0-1.3,0-2.1,0V79.5c0.5,0,1.1,0,1.8-0.1c0.7,0,1.4,0,2.1,0c1.2,0,2.1,0.2,2.7,0.7c0.7,0.5,1,1.1,1,2.1
			c0,0.5-0.1,1-0.4,1.4c-0.3,0.4-0.6,0.7-1.1,1v0c0.6,0.2,1,0.5,1.3,0.9C136.8,86,137,86.5,137,87z M134,82.6c0-0.3-0.1-0.6-0.4-0.8
			c-0.2-0.2-0.6-0.3-1.1-0.3c-0.2,0-0.4,0-0.5,0c-0.2,0-0.3,0-0.5,0v2.4c0.1,0,0.2,0,0.3,0c0.1,0,0.3,0,0.4,0c0.6,0,1.1-0.1,1.3-0.4
			C133.9,83.3,134,83,134,82.6z M134.3,87c0-0.4-0.2-0.7-0.5-1c-0.3-0.2-0.8-0.3-1.4-0.3c-0.1,0-0.2,0-0.4,0c-0.2,0-0.3,0-0.4,0v2.6
			c0.1,0,0.3,0,0.4,0c0.2,0,0.4,0,0.5,0c0.6,0,1-0.1,1.3-0.4C134.1,87.8,134.3,87.5,134.3,87z"/>
		<path class="st17" d="M139.8,90.4V79.5h2.5v8.7h3.3v2.2H139.8z"/>
		<path class="st17" d="M147.9,90.4V79.5h2.5v10.9H147.9z"/>
		<path class="st17" d="M159.7,90.4c-0.5,0.1-0.9,0.1-1.4,0.1c-1,0-1.8-0.2-2.5-0.5c-0.7-0.3-1.2-0.7-1.6-1.2
			c-0.4-0.5-0.7-1.1-0.8-1.7c-0.2-0.6-0.2-1.2-0.2-1.8c0-0.9,0.1-1.7,0.4-2.4c0.2-0.7,0.6-1.3,1.1-1.9c0.5-0.5,1-0.9,1.7-1.2
			s1.5-0.4,2.4-0.4c0.4,0,0.8,0,1.1,0.1c0.4,0,0.7,0.1,1.1,0.2l-0.3,2.3c-0.6-0.2-1.3-0.3-2-0.3c-0.9,0-1.6,0.3-2,0.9
			c-0.5,0.6-0.7,1.4-0.7,2.4c0,1.1,0.2,1.9,0.7,2.5c0.5,0.6,1.2,0.9,2.2,0.9c0.3,0,0.6,0,0.9-0.1c0.3-0.1,0.7-0.2,0.9-0.3l0.4,2.2
			C160.6,90.2,160.1,90.4,159.7,90.4z"/>
		<path class="st17" d="M175.1,87c0,0.5-0.1,1-0.3,1.4c-0.2,0.4-0.5,0.8-0.9,1.2c-0.4,0.3-0.8,0.6-1.4,0.8c-0.5,0.2-1.1,0.3-1.8,0.3
			c-0.5,0-1,0-1.4-0.1c-0.4,0-0.8-0.1-1.2-0.2l0.2-2.4c0.4,0.2,0.7,0.3,1.1,0.4c0.4,0.1,0.8,0.1,1.3,0.1c0.4,0,0.8-0.1,1-0.3
			c0.3-0.2,0.4-0.5,0.4-0.9c0-0.3-0.1-0.6-0.3-0.7c-0.2-0.2-0.5-0.3-0.8-0.5s-0.7-0.3-1-0.4c-0.4-0.1-0.7-0.3-1-0.6
			c-0.3-0.2-0.6-0.5-0.8-0.9c-0.2-0.4-0.3-0.9-0.3-1.5c0-0.5,0.1-1,0.3-1.4c0.2-0.4,0.5-0.8,0.8-1.1c0.4-0.3,0.8-0.5,1.3-0.7
			c0.5-0.2,1.1-0.2,1.8-0.2c0.3,0,0.6,0,1,0c0.4,0,0.7,0.1,1,0.2l-0.2,2.2c-0.6-0.2-1.2-0.3-1.9-0.3c-0.5,0-0.9,0.1-1.1,0.3
			c-0.2,0.2-0.4,0.4-0.4,0.7c0,0.3,0.1,0.5,0.3,0.7c0.2,0.2,0.5,0.3,0.8,0.5c0.3,0.1,0.7,0.3,1.1,0.4c0.4,0.2,0.7,0.3,1.1,0.6
			c0.3,0.2,0.6,0.5,0.8,0.9C175,85.9,175.1,86.4,175.1,87z"/>
		<path class="st17" d="M183.8,90.4c-0.5,0.1-0.9,0.1-1.4,0.1c-1,0-1.8-0.2-2.5-0.5c-0.7-0.3-1.2-0.7-1.6-1.2
			c-0.4-0.5-0.7-1.1-0.8-1.7c-0.2-0.6-0.2-1.2-0.2-1.8c0-0.9,0.1-1.7,0.4-2.4c0.2-0.7,0.6-1.3,1.1-1.9c0.5-0.5,1-0.9,1.7-1.2
			s1.5-0.4,2.4-0.4c0.4,0,0.8,0,1.1,0.1c0.4,0,0.7,0.1,1.1,0.2l-0.3,2.3c-0.6-0.2-1.3-0.3-2-0.3c-0.9,0-1.6,0.3-2,0.9
			c-0.5,0.6-0.7,1.4-0.7,2.4c0,1.1,0.2,1.9,0.7,2.5c0.5,0.6,1.2,0.9,2.2,0.9c0.3,0,0.6,0,0.9-0.1c0.3-0.1,0.7-0.2,0.9-0.3l0.4,2.2
			C184.7,90.2,184.3,90.4,183.8,90.4z"/>
		<path class="st17" d="M194.5,90.4v-4.5h-4v4.5H188V79.5h2.5v4.2h4v-4.2h2.5v10.9H194.5z"/>
		<path class="st17" d="M210,84.8c0,0.9-0.1,1.7-0.4,2.4c-0.3,0.7-0.7,1.3-1.2,1.8c-0.5,0.5-1.1,0.9-1.7,1.2
			c-0.7,0.3-1.4,0.4-2.1,0.4c-0.8,0-1.6-0.1-2.2-0.4c-0.6-0.3-1.2-0.6-1.6-1.1c-0.4-0.5-0.7-1.1-0.9-1.7c-0.2-0.7-0.3-1.4-0.3-2.3
			c0-0.9,0.1-1.7,0.4-2.4c0.3-0.7,0.7-1.3,1.2-1.8c0.5-0.5,1.1-0.9,1.7-1.2c0.7-0.3,1.4-0.4,2.1-0.4c0.7,0,1.4,0.1,2,0.3
			c0.6,0.2,1.1,0.5,1.6,1c0.4,0.4,0.8,1,1,1.7C209.9,83,210,83.8,210,84.8z M207.4,85c0-1.1-0.2-1.9-0.6-2.5
			c-0.4-0.6-1.1-0.8-1.9-0.8c-0.3,0-0.6,0.1-0.9,0.2c-0.3,0.1-0.6,0.3-0.8,0.6c-0.2,0.3-0.4,0.6-0.6,1c-0.1,0.4-0.2,0.9-0.2,1.5
			c0,1.1,0.2,1.9,0.6,2.5c0.4,0.6,1,0.9,1.9,0.9c0.3,0,0.6-0.1,0.9-0.2s0.6-0.3,0.8-0.6c0.2-0.3,0.5-0.6,0.6-1
			C207.3,86.1,207.4,85.6,207.4,85z"/>
		<path class="st17" d="M222.5,84.8c0,0.9-0.1,1.7-0.4,2.4c-0.3,0.7-0.7,1.3-1.2,1.8c-0.5,0.5-1.1,0.9-1.7,1.2
			c-0.7,0.3-1.4,0.4-2.1,0.4c-0.8,0-1.6-0.1-2.2-0.4c-0.6-0.3-1.2-0.6-1.6-1.1c-0.4-0.5-0.7-1.1-0.9-1.7c-0.2-0.7-0.3-1.4-0.3-2.3
			c0-0.9,0.1-1.7,0.4-2.4c0.3-0.7,0.7-1.3,1.2-1.8c0.5-0.5,1.1-0.9,1.7-1.2c0.7-0.3,1.4-0.4,2.1-0.4c0.7,0,1.4,0.1,2,0.3
			c0.6,0.2,1.1,0.5,1.6,1c0.4,0.4,0.8,1,1,1.7C222.4,83,222.5,83.8,222.5,84.8z M219.9,85c0-1.1-0.2-1.9-0.6-2.5
			c-0.4-0.6-1.1-0.8-1.9-0.8c-0.3,0-0.6,0.1-0.9,0.2c-0.3,0.1-0.6,0.3-0.8,0.6c-0.2,0.3-0.4,0.6-0.6,1c-0.1,0.4-0.2,0.9-0.2,1.5
			c0,1.1,0.2,1.9,0.6,2.5c0.4,0.6,1,0.9,1.9,0.9c0.3,0,0.6-0.1,0.9-0.2s0.6-0.3,0.8-0.6c0.2-0.3,0.5-0.6,0.6-1
			C219.8,86.1,219.9,85.6,219.9,85z"/>
		<path class="st17" d="M225.2,90.4V79.5h2.5v8.7h3.3v2.2H225.2z"/>
		<path class="st17" d="M239.7,87c0,0.5-0.1,1-0.3,1.4s-0.5,0.8-0.9,1.2c-0.4,0.3-0.8,0.6-1.4,0.8c-0.5,0.2-1.1,0.3-1.8,0.3
			c-0.5,0-1,0-1.4-0.1c-0.4,0-0.8-0.1-1.2-0.2l0.2-2.4c0.4,0.2,0.7,0.3,1.1,0.4c0.4,0.1,0.8,0.1,1.3,0.1c0.4,0,0.8-0.1,1-0.3
			c0.3-0.2,0.4-0.5,0.4-0.9c0-0.3-0.1-0.6-0.3-0.7c-0.2-0.2-0.5-0.3-0.8-0.5c-0.3-0.1-0.7-0.3-1-0.4c-0.4-0.1-0.7-0.3-1-0.6
			c-0.3-0.2-0.6-0.5-0.8-0.9c-0.2-0.4-0.3-0.9-0.3-1.5c0-0.5,0.1-1,0.3-1.4c0.2-0.4,0.5-0.8,0.8-1.1c0.4-0.3,0.8-0.5,1.3-0.7
			c0.5-0.2,1.1-0.2,1.8-0.2c0.3,0,0.6,0,1,0c0.4,0,0.7,0.1,1,0.2l-0.2,2.2c-0.6-0.2-1.2-0.3-1.9-0.3c-0.5,0-0.9,0.1-1.1,0.3
			c-0.2,0.2-0.4,0.4-0.4,0.7c0,0.3,0.1,0.5,0.3,0.7c0.2,0.2,0.5,0.3,0.8,0.5c0.3,0.1,0.7,0.3,1.1,0.4c0.4,0.2,0.7,0.3,1.1,0.6
			c0.3,0.2,0.6,0.5,0.8,0.9C239.6,85.9,239.7,86.4,239.7,87z"/>
	</g>
	<path class="st17" d="M171.7,74.5l-3.8-9.8l-3.8,9.8h-9.8l8.2-16.5l-8.2-16.1h9.8l3.8,9.6l3.8-9.6h10.4l-8.6,16l8.5,16.5H171.7z"/>
</g>
<g>
	<path d="M-7.1,344.5c-0.1-0.3-0.2-0.6-0.4-0.9c-0.2-0.4-0.5-0.9-0.9-1c-1-0.4-1.6-1.1-2.2-1.8c-0.3-0.3-0.5-0.8-0.9-0.9
		c-0.9-0.2-1.3-0.8-1.8-1.4c-0.2-0.2-0.3-0.6-0.5-1.1c0.5,0,0.8,0,1,0c3.5,0,7-0.1,10.5,0c0.8,0,1-0.2,1-1c0-5.7,0.1-11.4,0.2-17.1
		H9.3c0,2.3,0.1,4.7,0.1,7c0,0.5,0.1,0.8,0.6,1c1.1,0.4,2.3,0.8,3.5,1.1c0.7,0.2,1.4,0.2,2.1,0.3c1.7,0.3,3.5,0.3,5,1.2
		c0.1,0,0.1,0,0.2,0c1.1-0.1,2.3-0.4,3.4-0.3c1.5,0.1,3,0.3,4.4,0.7c1.6,0.5,1.6,0.6,1.6,2.3c0,2.3-0.3,4.7,1.2,6.9
		c0.2,0.3,0.4,0.6,0.6,0.9v1.5c-0.1,0.5-0.2,1-0.2,1.5c0,0,0,0.4,0,0.6c-0.1,0.4-0.1,0.9-0.2,1.3c-0.1,0.3-0.1,0.7-0.2,1
		c-0.1,0-0.2,0-0.4,0c-0.2,0.3-0.5,0.5-1,0.6c-0.6,0.2-1.2,0.5-1.8,0.7c-0.1,0-0.1,0-0.2,0c0.1-0.2-0.7,0.3-0.8,0.3
		c-0.8,0.3-0.8,1.2-1.4,1.6c-1,0.7-2.1,1.3-3.2,2c-0.9,0-1.4,0-1.7,0.3c-0.2,0.4-0.3,0.9-0.6,1.3c-0.4,0.7-1,1.4-1.4,2.1
		c-0.3,0.5-0.3,1.3-0.6,2.1c-0.1,0.2-0.2,0.4-0.1,0.5c0.5,1.1,0.3,2.4,1.2,3.3c0.1,0.1,0,0.3,0.1,0.5c-0.6,0-1.1,0.1-1.6,0
		c-1.3-0.3-2.5-0.7-3.8-1.1c-1-0.3-1.7-0.8-2-1.8c-0.1-0.5-0.4-0.9-0.6-1.3c-1.2-2.1-2.6-4.1-3.4-6.2c-0.8-2-2.3-3.1-3.6-4.6
		c-0.1-0.1-0.3-0.1-0.4-0.1c-0.4,0-0.7-0.1-1.1-0.2c-0.7,0-1.3,0-2,0c-0.1,0-0.3,0.1-0.4,0.2c-0.6,0.3-0.9,0.6-1,1.1
		c0,0.2-0.1,0.5-0.1,0.7c-0.3,1.2-1,1.6-2.1,1c-0.9-0.5-1.9-1-2.8-1.5c-0.4-0.3-0.7-0.7-0.9-1.1c-0.1-0.1-0.1-0.3-0.2-0.4
		c-0.1-0.1-0.3-0.2-0.3-0.4c-0.1-0.3-0.1-0.5,0-0.6C-6.9,345-6.9,344.8-7.1,344.5z"/>
</g>
<rect x="-551.4" y="625.4" class="st9" width="397" height="156"/>
<text transform="matrix(1 0 0 1 -539.709 694.7436)"><tspan x="0" y="0" class="st1" style="font-family:'Whitney-Medium'; font-size:19.9513px;">Whitney Medium</tspan><tspan x="30.7" y="31.6" class="st1" style="font-family:'Whitney-Bold'; font-size:19.9513px;">Whitney Bold</tspan></text>
<text transform="matrix(1 0 0 1 -361.7373 694.7436)"><tspan x="0" y="0" class="st1" style="font-family:'TheSansB5Plain'; font-size:19.9513px;">Thesis Sans Plain</tspan><tspan x="0" y="31.6" class="st1" style="font-family:'TheSansB8ExtraBold'; font-size:19.9513px;">Thesis Sans Extra Bold</tspan></text>
<line class="st18" x1="-376.5" y1="642.8" x2="-376.5" y2="764.8"/>
<g>
	<rect x="315.6" y="-69.4" class="st9" width="397" height="156"/>
	<g>
		<path class="st1" d="M344.5-0.1h-1.6l-3.7-11.2l-3.7,11.2h-1.6l-4.1-13.6l1.9-0.4l3.1,11l3.5-10.8h1.9l3.5,10.8l3-10.8h2
			L344.5-0.1z"/>
		<path class="st1" d="M356.6-0.1v-6.5c0-1-0.4-1.6-1.5-1.6c-0.9,0-1.9,0.6-2.8,1.5v6.6h-1.8v-14.1l1.8-0.3v6.1
			c0.8-0.7,1.9-1.5,3.2-1.5c1.8,0,2.8,1.1,2.8,2.8v6.9H356.6z"/>
		<path class="st1" d="M362-11.6c-0.6,0-1.1-0.5-1.1-1.1c0-0.6,0.5-1.1,1.1-1.1c0.6,0,1.1,0.5,1.1,1.1
			C363.1-12.1,362.6-11.6,362-11.6z M361.1-0.1v-9.5h1.8v9.5H361.1z"/>
		<path class="st1" d="M368.9,0c-1.7,0-2.8-0.6-2.8-2.5v-5.7h-1.4v-1.5h1.4v-3.2l1.7-0.3v3.4h2.1l0.2,1.5h-2.3v5.3
			c0,0.8,0.3,1.3,1.3,1.3c0.3,0,0.6,0,0.8-0.1l0.2,1.5C369.9,0,369.5,0,368.9,0z"/>
		<path class="st1" d="M378-0.1v-6.5c0-1-0.4-1.6-1.5-1.6c-0.9,0-1.9,0.6-2.8,1.5v6.6h-1.8v-9.5h1.4l0.2,1.4c0.9-0.8,2-1.6,3.4-1.6
			c1.8,0,2.8,1.1,2.8,2.8v6.9H378z"/>
		<path class="st1" d="M386.4,0.1c-2.5,0-4.4-1.5-4.4-5c0-3.1,1.8-4.9,4.2-4.9c2.8,0,4.1,2.1,4.1,4.8v0.4h-6.5
			c0.1,2.2,1.1,3.3,2.8,3.3c1.4,0,2.4-0.5,3.4-1.4l0.3,1.6C389.2-0.4,387.9,0.1,386.4,0.1z M383.8-6h4.6c-0.2-1.5-0.9-2.4-2.3-2.4
			C385-8.4,384.1-7.7,383.8-6z"/>
		<path class="st1" d="M396,0.9c-0.8,2.1-1.8,2.6-3.2,2.6c-0.4,0-0.6,0-0.8-0.1l-0.3-1.6c0.3,0.1,0.7,0.1,0.9,0.1
			c0.8,0,1.3-0.4,1.7-1.4l0.2-0.6l-3.5-9.4l1.8-0.3l2.6,7.5l2.5-7.4h1.9L396,0.9z"/>
		<path class="st1" d="M419.6-0.1l-0.9-11.1l-4.3,11.2h-1.5l-4.3-11.2l-0.8,11.1H406l1.1-13.8h2.3l4.3,11.3l4.3-11.3h2.3l1.1,13.8
			H419.6z"/>
		<path class="st1" d="M427.9,0.1c-2.5,0-4.4-1.5-4.4-5c0-3.1,1.8-4.9,4.2-4.9c2.8,0,4.1,2.1,4.1,4.8v0.4h-6.5
			c0.1,2.2,1.1,3.3,2.8,3.3c1.4,0,2.4-0.5,3.4-1.4l0.3,1.6C430.7-0.4,429.5,0.1,427.9,0.1z M425.4-6h4.6c-0.2-1.5-0.9-2.4-2.3-2.4
			C426.6-8.4,425.6-7.7,425.4-6z"/>
		<path class="st1" d="M440.5-0.1l-0.2-1.4c-0.7,0.9-1.7,1.6-3.1,1.6c-2.1,0-3.8-1.5-3.8-4.7c0-3.5,2-5.1,4.3-5.1
			c0.9,0,1.8,0.2,2.4,0.4v-4.9l1.8-0.3v14.4H440.5z M440.2-7.7c-0.7-0.4-1.3-0.5-2.3-0.5c-1.5,0-2.6,1.2-2.6,3.6
			c0,2.1,0.9,3.2,2.2,3.2c1.1,0,1.9-0.7,2.7-1.7V-7.7z"/>
		<path class="st1" d="M445.6-11.6c-0.6,0-1.1-0.5-1.1-1.1c0-0.6,0.5-1.1,1.1-1.1c0.6,0,1.1,0.5,1.1,1.1
			C446.7-12.1,446.2-11.6,445.6-11.6z M444.7-0.1v-9.5h1.8v9.5H444.7z"/>
		<path class="st1" d="M455.5-0.1l-0.2-1.4c-0.9,0.8-2,1.6-3.4,1.6c-1.8,0-2.8-1.1-2.8-2.8v-6.9h1.8v6.5c0,1,0.4,1.6,1.5,1.6
			c0.9,0,1.9-0.6,2.8-1.5v-6.6h1.8v9.5H455.5z"/>
		<path class="st1" d="M471.4-0.1v-6.5c0-1-0.4-1.6-1.4-1.6c-0.9,0-1.8,0.6-2.7,1.5v6.6h-1.8v-6.5c0-1-0.4-1.6-1.4-1.6
			c-0.9,0-1.8,0.6-2.7,1.5v6.6h-1.8v-9.5h1.4l0.2,1.4c0.9-0.8,2-1.6,3.3-1.6c1.4,0,2.2,0.6,2.5,1.6c0.9-0.8,2-1.6,3.4-1.6
			c1.8,0,2.7,1.1,2.7,2.8v6.9H471.4z"/>
		<path class="st1" d="M374.4,31.5H371l-2.4-8.9l-2.4,8.9h-3.4l-3.6-13.3l3.7-0.6l2.1,8.8l2.2-8.6h3.4l2.2,8.6l2-8.6h3.4L374.4,31.5
			z"/>
		<path class="st1" d="M385.2,31.5v-6.1c0-0.7-0.3-1.2-1-1.2c-0.6,0-1.1,0.3-1.7,0.9v6.4h-3V17.5l3-0.5v5.8c0.8-0.8,1.7-1.4,2.9-1.4
			c1.8,0,2.8,1.1,2.8,3v6.9H385.2z"/>
		<path class="st1" d="M391.7,20.4c-1,0-1.7-0.6-1.7-1.6c0-1,0.8-1.6,1.7-1.6c1,0,1.7,0.6,1.7,1.6C393.5,19.8,392.7,20.4,391.7,20.4
			z M390.2,31.5v-9.8h3v9.8H390.2z"/>
		<path class="st1" d="M399.4,31.6c-2.1,0-3.6-0.8-3.6-3.3v-4.2h-1.3v-2.5h1.3v-2.9l3-0.5v3.4h1.9l0.4,2.5h-2.2v3.7
			c0,0.8,0.4,1.2,1.2,1.2c0.3,0,0.5,0,0.7-0.1l0.4,2.5C400.7,31.5,400.2,31.6,399.4,31.6z"/>
		<path class="st1" d="M408.2,31.5v-6.1c0-0.7-0.3-1.2-1-1.2c-0.6,0-1.1,0.3-1.7,0.9v6.4h-3v-9.8h2.7l0.2,1.3
			c0.9-0.9,1.8-1.5,3.1-1.5c1.8,0,2.8,1.1,2.8,3v6.9H408.2z"/>
		<path class="st1" d="M421.7,27.3h-5.9c0.2,1.5,1.1,2.1,2.4,2.1c1.1,0,2.1-0.4,3.2-1l0.3,2.1c-1.1,0.7-2.4,1.1-3.9,1.1
			c-2.9,0-5-1.6-5-5c0-3.2,2-5.1,4.6-5.1c3,0,4.3,2.2,4.3,5.1C421.7,26.9,421.7,27.2,421.7,27.3z M417.3,23.4
			c-0.8,0-1.4,0.7-1.5,2.2h3.1C418.7,24.2,418.2,23.4,417.3,23.4z"/>
		<path class="st1" d="M428.4,31.7c-0.9,2.6-2.1,3.4-4.2,3.4c-0.6,0-0.9-0.1-1.1-0.1l-0.4-2.4c0.3,0.1,0.6,0.2,1.2,0.2
			c0.7,0,1.3-0.3,1.6-0.9l0.1-0.3l-3.6-9.6l3.2-0.4l1.9,6.2l1.8-6h2.9L428.4,31.7z"/>
		<path class="st1" d="M442.1,31.5h-4.6V17.7h4.7c3.1,0,4.7,1.3,4.7,3.6c0,1.5-0.9,2.4-2,2.9c1.5,0.5,2.5,1.4,2.5,3.3
			C447.4,30.1,445.4,31.5,442.1,31.5z M441.9,20.1h-1.2v3.1h1.1c1.3,0,2-0.6,2-1.6C443.8,20.7,443.3,20.1,441.9,20.1z M441.9,25.5
			h-1.2V29h1.3c1.4,0,2.2-0.6,2.2-1.7C444.2,26.1,443.4,25.5,441.9,25.5z"/>
		<path class="st1" d="M453.3,31.7c-2.7,0-4.7-1.9-4.7-5.1c0-3.1,2-5.1,4.7-5.1c2.7,0,4.7,2,4.7,5.1C458,29.7,456,31.7,453.3,31.7z
			 M453.3,24c-1.2,0-1.8,1-1.8,2.6c0,1.6,0.6,2.7,1.8,2.7c1.2,0,1.8-1.1,1.8-2.6C455.1,25,454.5,24,453.3,24z"/>
		<path class="st1" d="M459.6,31.5V17.5l3-0.5v14.4H459.6z"/>
		<path class="st1" d="M470.8,31.5l-0.2-1.3c-0.7,0.7-1.6,1.5-2.8,1.5c-2,0-3.5-1.5-3.5-4.8c0-3.7,2-5.2,4.1-5.2
			c0.9,0,1.5,0.1,2.1,0.3v-4.4l3-0.5v14.4H470.8z M470.4,24.3c-0.4-0.2-0.8-0.3-1.4-0.3c-1,0-1.8,0.8-1.8,2.7c0,1.7,0.6,2.4,1.5,2.4
			c0.6,0,1.2-0.4,1.7-1V24.3z"/>
	</g>
	<g>
		<path class="st1" d="M511.4-12.1v11.9h-1.8v-11.9h-3.9v-1.5h9.6v1.5H511.4z"/>
		<path class="st1" d="M523.4-0.1v-6.4c0-0.7-0.1-1.3-0.3-1.7c-0.2-0.4-0.7-0.6-1.3-0.6c-0.4,0-0.8,0.1-1.1,0.3
			c-0.3,0.2-0.6,0.5-0.9,0.8c-0.2,0.3-0.4,0.8-0.6,1.2c-0.1,0.5-0.2,1-0.2,1.5v4.7h-1.8v-14.6h1.8v4.7c0,0.3,0,0.7,0,1
			c0,0.4-0.1,0.7-0.1,0.9l0,0c0.3-0.7,0.7-1.2,1.3-1.6c0.6-0.4,1.3-0.6,2.1-0.6c0.6,0,1,0.1,1.4,0.2c0.4,0.2,0.7,0.4,0.9,0.7
			c0.2,0.3,0.4,0.6,0.5,1c0.1,0.4,0.1,0.8,0.1,1.2v6.9H523.4z"/>
		<path class="st1" d="M535.8-6.1c0,0.2,0,0.5-0.1,0.9h-6.5c0,1.3,0.2,2.3,0.7,2.8c0.5,0.6,1.3,0.9,2.4,0.9c0.5,0,1,0,1.4-0.1
			s0.9-0.2,1.4-0.4l0.3,1.4c-0.5,0.2-1,0.4-1.6,0.5c-0.6,0.1-1.2,0.2-1.8,0.2c-1.5,0-2.7-0.4-3.5-1.2c-0.8-0.8-1.2-2.1-1.2-3.9
			c0-0.7,0.1-1.4,0.3-2.1s0.5-1.2,0.9-1.6c0.4-0.5,0.8-0.8,1.4-1.1c0.5-0.3,1.2-0.4,1.9-0.4c0.7,0,1.3,0.1,1.8,0.3
			c0.5,0.2,0.9,0.5,1.2,0.9c0.3,0.4,0.6,0.8,0.7,1.3C535.7-7.2,535.8-6.6,535.8-6.1z M533.4-8.2c-0.4-0.5-1-0.7-1.7-0.7
			c-0.7,0-1.2,0.2-1.6,0.7c-0.4,0.5-0.7,1.1-0.8,1.8h4.6C533.9-7.2,533.8-7.8,533.4-8.2z"/>
		<path class="st1" d="M543.9-3.1c0,0.5-0.1,0.9-0.3,1.3c-0.2,0.4-0.5,0.7-0.8,1c-0.4,0.3-0.8,0.5-1.3,0.7s-1.1,0.2-1.8,0.2
			c-0.4,0-0.8,0-1.2-0.1c-0.4,0-0.7-0.1-1-0.2l0.2-1.6c0.3,0.1,0.7,0.2,1.1,0.3c0.4,0.1,0.8,0.1,1.1,0.1c0.6,0,1.2-0.1,1.5-0.4
			c0.4-0.3,0.6-0.6,0.6-1.1c0-0.4-0.1-0.7-0.3-0.9c-0.2-0.2-0.5-0.4-0.9-0.5c-0.3-0.1-0.7-0.2-1.1-0.3s-0.8-0.3-1.1-0.5
			c-0.3-0.2-0.6-0.5-0.9-0.8c-0.2-0.3-0.3-0.8-0.3-1.4c0-0.9,0.3-1.6,1-2.1s1.6-0.8,3-0.8c0.3,0,0.6,0,1,0c0.3,0,0.7,0.1,1,0.2
			l-0.1,1.5c-0.3-0.1-0.6-0.2-0.9-0.2c-0.3,0-0.7-0.1-1-0.1c-0.7,0-1.2,0.1-1.5,0.4c-0.3,0.3-0.5,0.6-0.5,1c0,0.4,0.1,0.7,0.3,0.8
			c0.2,0.2,0.5,0.4,0.9,0.5s0.7,0.3,1.1,0.4c0.4,0.1,0.8,0.3,1.1,0.5c0.3,0.2,0.6,0.5,0.9,0.8C543.8-4.1,543.9-3.7,543.9-3.1z"/>
		<path class="st1" d="M548.1-13.2c0,0.3-0.1,0.6-0.3,0.8c-0.2,0.2-0.5,0.3-0.8,0.3c-0.3,0-0.6-0.1-0.8-0.3
			c-0.2-0.2-0.3-0.5-0.3-0.8c0-0.3,0.1-0.6,0.3-0.8c0.2-0.2,0.5-0.3,0.8-0.3c0.3,0,0.6,0.1,0.8,0.3C548-13.8,548.1-13.5,548.1-13.2z
			 M546-0.1V-10h1.8v9.9H546z"/>
		<path class="st1" d="M556.5-3.1c0,0.5-0.1,0.9-0.3,1.3c-0.2,0.4-0.5,0.7-0.8,1c-0.4,0.3-0.8,0.5-1.3,0.7s-1.1,0.2-1.8,0.2
			c-0.4,0-0.8,0-1.2-0.1c-0.4,0-0.7-0.1-1-0.2l0.2-1.6c0.3,0.1,0.7,0.2,1.1,0.3c0.4,0.1,0.8,0.1,1.1,0.1c0.6,0,1.2-0.1,1.5-0.4
			c0.4-0.3,0.6-0.6,0.6-1.1c0-0.4-0.1-0.7-0.3-0.9c-0.2-0.2-0.5-0.4-0.9-0.5c-0.3-0.1-0.7-0.2-1.1-0.3s-0.8-0.3-1.1-0.5
			c-0.3-0.2-0.6-0.5-0.9-0.8c-0.2-0.3-0.3-0.8-0.3-1.4c0-0.9,0.3-1.6,1-2.1s1.6-0.8,3-0.8c0.3,0,0.6,0,1,0c0.3,0,0.7,0.1,1,0.2
			l-0.1,1.5c-0.3-0.1-0.6-0.2-0.9-0.2c-0.3,0-0.7-0.1-1-0.1c-0.7,0-1.2,0.1-1.5,0.4c-0.3,0.3-0.5,0.6-0.5,1c0,0.4,0.1,0.7,0.3,0.8
			c0.2,0.2,0.5,0.4,0.9,0.5s0.7,0.3,1.1,0.4c0.4,0.1,0.8,0.3,1.1,0.5c0.3,0.2,0.6,0.5,0.9,0.8C556.4-4.1,556.5-3.7,556.5-3.1z"/>
		<path class="st1" d="M570.9-4.1c0,0.6-0.1,1.2-0.4,1.7c-0.2,0.5-0.6,0.9-1,1.3c-0.4,0.4-1,0.7-1.6,0.9c-0.6,0.2-1.3,0.3-2.1,0.3
			c-0.6,0-1.1,0-1.6-0.1c-0.5-0.1-1-0.2-1.4-0.3l0.2-1.8c0.4,0.2,0.9,0.3,1.4,0.4c0.5,0.1,1,0.1,1.5,0.1c0.4,0,0.8,0,1.1-0.1
			s0.7-0.2,0.9-0.4c0.3-0.2,0.5-0.4,0.6-0.7s0.2-0.6,0.2-1.1c0-0.5-0.1-0.9-0.4-1.2c-0.3-0.3-0.7-0.6-1.1-0.8s-0.9-0.4-1.5-0.6
			c-0.5-0.2-1-0.4-1.5-0.7s-0.8-0.6-1.1-1.1c-0.3-0.4-0.4-1-0.4-1.7c0-0.6,0.1-1.1,0.3-1.5c0.2-0.5,0.5-0.9,0.9-1.2
			c0.4-0.3,0.9-0.6,1.5-0.8s1.3-0.3,2-0.3c0.4,0,0.8,0,1.2,0.1c0.4,0,0.8,0.1,1.2,0.2l-0.2,1.6c-0.4-0.1-0.7-0.2-1.1-0.3
			c-0.4-0.1-0.8-0.1-1.2-0.1c-0.9,0-1.6,0.2-2,0.6s-0.7,0.9-0.7,1.5c0,0.5,0.2,0.9,0.5,1.2c0.3,0.3,0.7,0.6,1.1,0.8s0.9,0.4,1.5,0.6
			c0.5,0.2,1,0.4,1.5,0.7c0.5,0.3,0.8,0.7,1.1,1.1C570.8-5.4,570.9-4.8,570.9-4.1z"/>
		<path class="st1" d="M578.7-0.1c0-0.3,0-0.7,0-1c0-0.3,0-0.7,0.1-0.9h0c-0.2,0.6-0.7,1.1-1.2,1.5s-1.3,0.6-2.1,0.6
			c-0.8,0-1.5-0.2-2-0.7s-0.8-1.1-0.8-1.9c0-1.1,0.5-1.9,1.6-2.5c1-0.6,2.5-0.9,4.4-0.9v-0.7c0-0.7-0.2-1.2-0.5-1.6
			c-0.3-0.4-0.9-0.6-1.7-0.6c-0.5,0-1,0.1-1.5,0.2s-1,0.3-1.4,0.6l-0.4-1.5c0.5-0.2,1-0.4,1.6-0.5c0.6-0.1,1.2-0.2,1.9-0.2
			c0.7,0,1.3,0.1,1.8,0.2c0.5,0.2,0.9,0.4,1.1,0.7c0.3,0.3,0.5,0.6,0.6,1c0.1,0.4,0.2,0.8,0.2,1.3v4c0,0.5,0,1,0,1.5s0,1,0,1.4
			H578.7z M578.6-4.8c-0.8,0-1.5,0.1-2,0.2c-0.5,0.1-1,0.2-1.3,0.4c-0.3,0.2-0.5,0.4-0.7,0.6s-0.2,0.5-0.2,0.7
			c0,0.4,0.1,0.8,0.4,1.1c0.3,0.3,0.6,0.4,1.1,0.4c0.4,0,0.8-0.1,1.1-0.3c0.3-0.2,0.6-0.4,0.9-0.7c0.2-0.3,0.4-0.6,0.5-1
			c0.1-0.4,0.2-0.8,0.2-1.2V-4.8z"/>
		<path class="st1" d="M589.5-0.1v-6.4c0-0.7-0.1-1.3-0.3-1.7c-0.2-0.4-0.7-0.6-1.3-0.6c-0.4,0-0.8,0.1-1.1,0.3
			c-0.3,0.2-0.6,0.5-0.9,0.8c-0.2,0.3-0.4,0.8-0.6,1.2c-0.1,0.5-0.2,1-0.2,1.5v4.7h-1.8V-10h1.7c0,0.3,0,0.7,0,1
			c0,0.4-0.1,0.7-0.1,1h0c0.3-0.7,0.7-1.2,1.3-1.6s1.3-0.6,2.2-0.6c0.6,0,1,0.1,1.4,0.2c0.4,0.2,0.7,0.4,0.9,0.7
			c0.2,0.3,0.4,0.6,0.5,1c0.1,0.4,0.1,0.8,0.1,1.2v6.9H589.5z"/>
		<path class="st1" d="M600-3.1c0,0.5-0.1,0.9-0.3,1.3c-0.2,0.4-0.5,0.7-0.8,1c-0.4,0.3-0.8,0.5-1.3,0.7s-1.1,0.2-1.8,0.2
			c-0.4,0-0.8,0-1.2-0.1c-0.4,0-0.7-0.1-1-0.2l0.2-1.6c0.3,0.1,0.7,0.2,1.1,0.3c0.4,0.1,0.8,0.1,1.1,0.1c0.6,0,1.2-0.1,1.5-0.4
			c0.4-0.3,0.6-0.6,0.6-1.1c0-0.4-0.1-0.7-0.3-0.9c-0.2-0.2-0.5-0.4-0.9-0.5c-0.3-0.1-0.7-0.2-1.1-0.3s-0.8-0.3-1.1-0.5
			c-0.3-0.2-0.6-0.5-0.9-0.8c-0.2-0.3-0.3-0.8-0.3-1.4c0-0.9,0.3-1.6,1-2.1s1.6-0.8,3-0.8c0.3,0,0.6,0,1,0c0.3,0,0.7,0.1,1,0.2
			l-0.1,1.5c-0.3-0.1-0.6-0.2-0.9-0.2c-0.3,0-0.7-0.1-1-0.1c-0.7,0-1.2,0.1-1.5,0.4c-0.3,0.3-0.5,0.6-0.5,1c0,0.4,0.1,0.7,0.3,0.8
			c0.2,0.2,0.5,0.4,0.9,0.5s0.7,0.3,1.1,0.4c0.4,0.1,0.8,0.3,1.1,0.5c0.3,0.2,0.6,0.5,0.9,0.8C599.9-4.1,600-3.7,600-3.1z"/>
		<path class="st1" d="M615.2-9.7c0,0.7-0.1,1.3-0.4,1.8c-0.3,0.5-0.6,1-1.1,1.4c-0.5,0.4-1,0.7-1.6,0.9c-0.6,0.2-1.3,0.3-2.1,0.3
			c-0.2,0-0.4,0-0.5,0c-0.2,0-0.4,0-0.5,0v5.1H607v-13.5c0.5,0,1,0,1.6-0.1c0.5,0,1.1,0,1.7,0c1.6,0,2.7,0.4,3.6,1.1
			C614.8-11.9,615.2-10.9,615.2-9.7z M613.3-9.5c0-0.8-0.3-1.5-0.8-1.9c-0.5-0.5-1.3-0.7-2.4-0.7c-0.3,0-0.5,0-0.7,0
			c-0.2,0-0.4,0-0.6,0v5.3c0.2,0,0.4,0,0.5,0.1c0.2,0,0.4,0,0.6,0c1,0,1.8-0.3,2.4-0.8C613-8,613.3-8.7,613.3-9.5z"/>
		<path class="st1" d="M617.1-0.1v-14.6h1.8v14.6H617.1z"/>
		<path class="st1" d="M627.1-0.1c0-0.3,0-0.7,0-1c0-0.3,0-0.7,0.1-0.9h0c-0.2,0.6-0.7,1.1-1.2,1.5s-1.3,0.6-2.1,0.6
			c-0.8,0-1.5-0.2-2-0.7S621-1.8,621-2.6c0-1.1,0.5-1.9,1.6-2.5c1-0.6,2.5-0.9,4.4-0.9v-0.7c0-0.7-0.2-1.2-0.5-1.6
			c-0.3-0.4-0.9-0.6-1.7-0.6c-0.5,0-1,0.1-1.5,0.2s-1,0.3-1.4,0.6l-0.4-1.5c0.5-0.2,1-0.4,1.6-0.5c0.6-0.1,1.2-0.2,1.9-0.2
			c0.7,0,1.3,0.1,1.8,0.2c0.5,0.2,0.9,0.4,1.1,0.7c0.3,0.3,0.5,0.6,0.6,1c0.1,0.4,0.2,0.8,0.2,1.3v4c0,0.5,0,1,0,1.5s0,1,0,1.4
			H627.1z M627-4.8c-0.8,0-1.5,0.1-2,0.2c-0.5,0.1-1,0.2-1.3,0.4c-0.3,0.2-0.5,0.4-0.7,0.6s-0.2,0.5-0.2,0.7c0,0.4,0.1,0.8,0.4,1.1
			c0.3,0.3,0.6,0.4,1.1,0.4c0.4,0,0.8-0.1,1.1-0.3c0.3-0.2,0.6-0.4,0.9-0.7c0.2-0.3,0.4-0.6,0.5-1c0.1-0.4,0.2-0.8,0.2-1.2V-4.8z"/>
		<path class="st1" d="M633.7-13.2c0,0.3-0.1,0.6-0.3,0.8c-0.2,0.2-0.5,0.3-0.8,0.3c-0.3,0-0.6-0.1-0.8-0.3
			c-0.2-0.2-0.3-0.5-0.3-0.8c0-0.3,0.1-0.6,0.3-0.8c0.2-0.2,0.5-0.3,0.8-0.3c0.3,0,0.6,0.1,0.8,0.3
			C633.6-13.8,633.7-13.5,633.7-13.2z M631.7-0.1V-10h1.8v9.9H631.7z"/>
		<path class="st1" d="M642.6-0.1v-6.4c0-0.7-0.1-1.3-0.3-1.7c-0.2-0.4-0.7-0.6-1.3-0.6c-0.4,0-0.8,0.1-1.1,0.3
			c-0.3,0.2-0.6,0.5-0.9,0.8c-0.2,0.3-0.4,0.8-0.6,1.2c-0.1,0.5-0.2,1-0.2,1.5v4.7h-1.8V-10h1.7c0,0.3,0,0.7,0,1
			c0,0.4-0.1,0.7-0.1,1h0c0.3-0.7,0.7-1.2,1.3-1.6s1.3-0.6,2.2-0.6c0.6,0,1,0.1,1.4,0.2c0.4,0.2,0.7,0.4,0.9,0.7
			c0.2,0.3,0.4,0.6,0.5,1c0.1,0.4,0.1,0.8,0.1,1.2v6.9H642.6z"/>
		<path class="st1" d="M511.9,20.6v10.8h-3.1V20.6h-3.2V18h9.6v2.6H511.9z"/>
		<path class="st1" d="M522.3,31.5v-6.3c0-0.4-0.1-0.7-0.2-0.9c-0.1-0.2-0.4-0.3-0.7-0.3c-0.3,0-0.5,0.1-0.8,0.2s-0.5,0.4-0.6,0.6
			c-0.2,0.3-0.3,0.6-0.4,0.9c-0.1,0.3-0.2,0.7-0.2,1v4.8h-3V16.9h3v4c0,0.3,0,0.6,0,1c0,0.4-0.1,0.7-0.1,1h0
			c0.3-0.5,0.7-0.8,1.2-1.1c0.5-0.3,1.2-0.4,1.9-0.4c0.6,0,1,0.1,1.4,0.2c0.4,0.2,0.7,0.4,0.9,0.7c0.2,0.3,0.4,0.6,0.5,1
			c0.1,0.4,0.1,0.8,0.1,1.2v7H522.3z"/>
		<path class="st1" d="M536.1,25.9c0,0.2,0,0.4,0,0.6c0,0.2,0,0.5-0.1,0.7h-5.9c0,0.7,0.2,1.2,0.6,1.5c0.4,0.4,1,0.5,1.8,0.5
			c0.5,0,1,0,1.5-0.1s1-0.3,1.5-0.5l0.3,2.3c-0.6,0.2-1.2,0.4-1.8,0.5c-0.6,0.1-1.3,0.2-1.9,0.2c-1.6,0-2.9-0.4-3.7-1.2
			c-0.9-0.8-1.3-2.1-1.3-3.9c0-0.8,0.1-1.5,0.3-2.1c0.2-0.7,0.5-1.2,0.9-1.7c0.4-0.5,0.9-0.8,1.5-1.1c0.6-0.3,1.3-0.4,2-0.4
			c0.7,0,1.4,0.1,1.9,0.4c0.5,0.2,1,0.6,1.3,1s0.6,0.9,0.8,1.5S536.1,25.3,536.1,25.9z M532.8,24c-0.3-0.3-0.6-0.4-1-0.4
			s-0.8,0.2-1.1,0.5c-0.3,0.3-0.5,0.7-0.5,1.3h3C533.1,24.7,533,24.3,532.8,24z"/>
		<path class="st1" d="M544.3,28.3c0,0.5-0.1,1-0.3,1.4s-0.5,0.8-0.9,1.1c-0.4,0.3-0.9,0.5-1.4,0.7c-0.6,0.2-1.2,0.2-1.8,0.2
			c-0.8,0-1.5-0.1-2.2-0.3l0.2-2.5c0.6,0.3,1.3,0.4,2.1,0.4c0.4,0,0.7-0.1,0.9-0.2s0.3-0.3,0.3-0.6s-0.1-0.4-0.3-0.6
			c-0.2-0.1-0.4-0.3-0.7-0.4s-0.6-0.2-0.9-0.3c-0.3-0.1-0.6-0.3-0.9-0.5s-0.5-0.5-0.7-0.8c-0.2-0.3-0.3-0.8-0.3-1.3
			c0-0.5,0.1-0.9,0.3-1.3c0.2-0.4,0.4-0.8,0.8-1.1c0.4-0.3,0.8-0.5,1.4-0.7s1.2-0.3,2-0.3c0.3,0,0.6,0,0.9,0c0.3,0,0.6,0.1,0.9,0.1
			l-0.1,2.4c-0.3-0.1-0.5-0.2-0.8-0.2c-0.3,0-0.6-0.1-0.9-0.1c-0.4,0-0.7,0.1-0.9,0.2s-0.3,0.3-0.3,0.5c0,0.2,0.1,0.4,0.3,0.5
			s0.4,0.3,0.7,0.4c0.3,0.1,0.6,0.2,0.9,0.4c0.3,0.1,0.6,0.3,0.9,0.5s0.5,0.5,0.7,0.8C544.2,27.3,544.3,27.8,544.3,28.3z"/>
		<path class="st1" d="M549.3,18.6c0,0.3-0.1,0.5-0.2,0.7s-0.2,0.4-0.4,0.6c-0.2,0.2-0.4,0.3-0.6,0.4c-0.2,0.1-0.5,0.1-0.7,0.1
			s-0.5,0-0.7-0.1c-0.2-0.1-0.4-0.2-0.6-0.4c-0.2-0.2-0.3-0.3-0.4-0.6s-0.1-0.5-0.1-0.7c0-0.2,0-0.5,0.1-0.7
			c0.1-0.2,0.2-0.4,0.4-0.6c0.2-0.2,0.4-0.3,0.6-0.4c0.2-0.1,0.5-0.1,0.7-0.1s0.5,0,0.7,0.1c0.2,0.1,0.4,0.2,0.6,0.4
			c0.2,0.2,0.3,0.3,0.4,0.6C549.2,18.1,549.3,18.3,549.3,18.6z M545.9,31.5v-9.9h3v9.9H545.9z"/>
		<path class="st1" d="M557.5,28.3c0,0.5-0.1,1-0.3,1.4s-0.5,0.8-0.9,1.1c-0.4,0.3-0.9,0.5-1.4,0.7c-0.6,0.2-1.2,0.2-1.8,0.2
			c-0.8,0-1.5-0.1-2.2-0.3l0.2-2.5c0.6,0.3,1.3,0.4,2.1,0.4c0.4,0,0.7-0.1,0.9-0.2s0.3-0.3,0.3-0.6s-0.1-0.4-0.3-0.6
			c-0.2-0.1-0.4-0.3-0.7-0.4s-0.6-0.2-0.9-0.3c-0.3-0.1-0.6-0.3-0.9-0.5s-0.5-0.5-0.7-0.8c-0.2-0.3-0.3-0.8-0.3-1.3
			c0-0.5,0.1-0.9,0.3-1.3c0.2-0.4,0.4-0.8,0.8-1.1c0.4-0.3,0.8-0.5,1.4-0.7s1.2-0.3,2-0.3c0.3,0,0.6,0,0.9,0c0.3,0,0.6,0.1,0.9,0.1
			l-0.1,2.4c-0.3-0.1-0.5-0.2-0.8-0.2c-0.3,0-0.6-0.1-0.9-0.1c-0.4,0-0.7,0.1-0.9,0.2s-0.3,0.3-0.3,0.5c0,0.2,0.1,0.4,0.3,0.5
			s0.4,0.3,0.7,0.4c0.3,0.1,0.6,0.2,0.9,0.4c0.3,0.1,0.6,0.3,0.9,0.5s0.5,0.5,0.7,0.8C557.4,27.3,557.5,27.8,557.5,28.3z"/>
		<path class="st1" d="M572,27.2c0,0.6-0.1,1.2-0.4,1.8c-0.3,0.6-0.6,1-1.1,1.4c-0.5,0.4-1,0.7-1.7,0.9c-0.7,0.2-1.4,0.3-2.2,0.3
			c-0.6,0-1.2,0-1.7-0.1c-0.5-0.1-1-0.1-1.5-0.3l0.3-3c0.4,0.2,0.9,0.3,1.4,0.4c0.5,0.1,1,0.2,1.6,0.2c0.5,0,0.9-0.1,1.3-0.3
			c0.4-0.2,0.5-0.6,0.5-1.1c0-0.4-0.1-0.7-0.4-0.9c-0.3-0.2-0.6-0.4-1-0.6c-0.4-0.2-0.8-0.3-1.3-0.5s-0.9-0.4-1.3-0.7
			c-0.4-0.3-0.7-0.7-1-1.1c-0.3-0.5-0.4-1.1-0.4-1.8c0-0.6,0.1-1.2,0.4-1.7c0.2-0.5,0.6-1,1-1.3c0.5-0.4,1-0.7,1.7-0.9
			s1.4-0.3,2.3-0.3c0.3,0,0.7,0,1.2,0.1s0.9,0.1,1.3,0.2l-0.3,2.7c-0.8-0.3-1.5-0.4-2.3-0.4c-0.6,0-1.1,0.1-1.4,0.3
			c-0.3,0.2-0.4,0.5-0.4,0.9c0,0.3,0.1,0.6,0.4,0.8s0.6,0.4,1,0.6c0.4,0.2,0.8,0.4,1.3,0.5c0.5,0.2,0.9,0.4,1.3,0.7
			c0.4,0.3,0.7,0.7,1,1.1C571.8,25.9,572,26.5,572,27.2z"/>
		<path class="st1" d="M578.9,31.5c0-0.2,0-0.5,0-0.7c0-0.3,0-0.5,0.1-0.8h0c-0.2,0.5-0.6,0.9-1.2,1.2c-0.5,0.3-1.2,0.5-1.9,0.5
			c-0.5,0-0.9-0.1-1.3-0.2c-0.4-0.2-0.7-0.4-0.9-0.6c-0.2-0.3-0.4-0.6-0.5-0.9c-0.1-0.4-0.2-0.7-0.2-1.1c0-0.6,0.1-1.2,0.4-1.6
			s0.7-0.8,1.2-1.1c0.5-0.3,1.1-0.5,1.8-0.6c0.7-0.1,1.4-0.2,2.2-0.2v-0.4c0-0.4-0.1-0.7-0.4-0.9c-0.3-0.2-0.7-0.3-1.4-0.3
			c-0.4,0-0.9,0.1-1.4,0.2c-0.5,0.1-0.9,0.3-1.3,0.5l-0.5-2.4c0.5-0.2,1.1-0.3,1.8-0.4c0.7-0.1,1.3-0.2,2-0.2c0.8,0,1.5,0.1,2.1,0.2
			c0.6,0.2,1,0.4,1.3,0.7c0.3,0.3,0.6,0.7,0.7,1.1c0.1,0.4,0.2,0.9,0.2,1.5v4.4c0,0.4,0,0.7,0,1.2c0,0.4,0,0.8,0.1,1.2H578.9z
			 M578.6,27.2c-0.5,0-1,0-1.3,0.1c-0.4,0.1-0.6,0.2-0.8,0.3c-0.2,0.1-0.3,0.2-0.4,0.4c-0.1,0.2-0.1,0.3-0.1,0.5
			c0,0.3,0.1,0.5,0.3,0.7s0.4,0.3,0.7,0.3c0.3,0,0.5-0.1,0.7-0.2c0.2-0.1,0.4-0.2,0.5-0.4c0.1-0.2,0.3-0.4,0.3-0.6
			c0.1-0.2,0.1-0.5,0.1-0.7V27.2z"/>
		<path class="st1" d="M589.8,31.5v-6.3c0-0.4-0.1-0.7-0.2-0.9c-0.1-0.2-0.4-0.3-0.7-0.3c-0.3,0-0.5,0.1-0.8,0.2s-0.5,0.4-0.6,0.6
			c-0.2,0.3-0.3,0.6-0.4,0.9c-0.1,0.3-0.2,0.7-0.2,1v4.8h-3v-9.9h2.8c0,0.2,0,0.4,0,0.7c0,0.3,0,0.6-0.1,0.8l0,0
			c0.3-0.5,0.7-0.9,1.3-1.3c0.5-0.3,1.2-0.5,2-0.5c0.6,0,1,0.1,1.4,0.2c0.4,0.2,0.7,0.4,0.9,0.7c0.2,0.3,0.4,0.6,0.5,1
			c0.1,0.4,0.1,0.8,0.1,1.2v7H589.8z"/>
		<path class="st1" d="M601.5,28.3c0,0.5-0.1,1-0.3,1.4s-0.5,0.8-0.9,1.1c-0.4,0.3-0.9,0.5-1.4,0.7c-0.6,0.2-1.2,0.2-1.8,0.2
			c-0.8,0-1.5-0.1-2.2-0.3l0.2-2.5c0.6,0.3,1.3,0.4,2.1,0.4c0.4,0,0.7-0.1,0.9-0.2s0.3-0.3,0.3-0.6s-0.1-0.4-0.3-0.6
			c-0.2-0.1-0.4-0.3-0.7-0.4s-0.6-0.2-0.9-0.3c-0.3-0.1-0.6-0.3-0.9-0.5s-0.5-0.5-0.7-0.8c-0.2-0.3-0.3-0.8-0.3-1.3
			c0-0.5,0.1-0.9,0.3-1.3c0.2-0.4,0.4-0.8,0.8-1.1c0.4-0.3,0.8-0.5,1.4-0.7s1.2-0.3,2-0.3c0.3,0,0.6,0,0.9,0c0.3,0,0.6,0.1,0.9,0.1
			l-0.1,2.4c-0.3-0.1-0.5-0.2-0.8-0.2c-0.3,0-0.6-0.1-0.9-0.1c-0.4,0-0.7,0.1-0.9,0.2s-0.3,0.3-0.3,0.5c0,0.2,0.1,0.4,0.3,0.5
			s0.4,0.3,0.7,0.4c0.3,0.1,0.6,0.2,0.9,0.4c0.3,0.1,0.6,0.3,0.9,0.5s0.5,0.5,0.7,0.8C601.4,27.3,601.5,27.8,601.5,28.3z"/>
		<path class="st1" d="M607.6,31.5V18h7.6v2.6h-4.5v2.7h4.2v2.5h-4.2v3h4.5v2.7H607.6z"/>
		<path class="st1" d="M622.9,31.5l-1.5-3l-1.5,3h-3.6l3.3-5l-3.1-4.9h3.6l1.6,3l1.6-3h3.4l-2.9,4.9l3.1,5H622.9z"/>
		<path class="st1" d="M633,31.6c-0.4,0.1-0.8,0.1-1.1,0.1c-0.6,0-1.1-0.1-1.4-0.2s-0.7-0.3-0.9-0.5s-0.4-0.6-0.5-1
			s-0.1-0.9-0.1-1.5v-4.6h-1.5v-2.3h1.5v-2.9l3.1-0.8v3.8h2.1v2.3h-2.1v3.9c0,0.5,0.1,0.9,0.2,1.1c0.1,0.2,0.4,0.3,0.8,0.3
			c0.2,0,0.4,0,0.5,0c0.2,0,0.3-0.1,0.5-0.1l0.2,2.4C633.7,31.5,633.4,31.5,633,31.6z"/>
		<path class="st1" d="M641.3,24.3c-0.8-0.2-1.5,0-1.9,0.4s-0.6,1.4-0.6,2.6v4.1h-3v-9.9h2.8c0,0.2,0,0.5,0,0.8
			c0,0.3-0.1,0.6-0.1,0.9h0c0.3-0.6,0.6-1.1,1.1-1.5s1.1-0.6,1.9-0.5L641.3,24.3z"/>
		<path class="st1" d="M648,31.5c0-0.2,0-0.5,0-0.7c0-0.3,0-0.5,0.1-0.8h0c-0.2,0.5-0.6,0.9-1.2,1.2c-0.5,0.3-1.2,0.5-1.9,0.5
			c-0.5,0-0.9-0.1-1.3-0.2c-0.4-0.2-0.7-0.4-0.9-0.6c-0.2-0.3-0.4-0.6-0.5-0.9c-0.1-0.4-0.2-0.7-0.2-1.1c0-0.6,0.1-1.2,0.4-1.6
			s0.7-0.8,1.2-1.1c0.5-0.3,1.1-0.5,1.8-0.6c0.7-0.1,1.4-0.2,2.2-0.2v-0.4c0-0.4-0.1-0.7-0.4-0.9c-0.3-0.2-0.7-0.3-1.4-0.3
			c-0.4,0-0.9,0.1-1.4,0.2c-0.5,0.1-0.9,0.3-1.3,0.5l-0.5-2.4c0.5-0.2,1.1-0.3,1.8-0.4c0.7-0.1,1.3-0.2,2-0.2c0.8,0,1.5,0.1,2.1,0.2
			c0.6,0.2,1,0.4,1.3,0.7c0.3,0.3,0.6,0.7,0.7,1.1c0.1,0.4,0.2,0.9,0.2,1.5v4.4c0,0.4,0,0.7,0,1.2c0,0.4,0,0.8,0.1,1.2H648z
			 M647.7,27.2c-0.5,0-1,0-1.3,0.1c-0.4,0.1-0.6,0.2-0.8,0.3c-0.2,0.1-0.3,0.2-0.4,0.4c-0.1,0.2-0.1,0.3-0.1,0.5
			c0,0.3,0.1,0.5,0.3,0.7s0.4,0.3,0.7,0.3c0.3,0,0.5-0.1,0.7-0.2c0.2-0.1,0.4-0.2,0.5-0.4c0.1-0.2,0.3-0.4,0.3-0.6
			c0.1-0.2,0.1-0.5,0.1-0.7V27.2z"/>
		<path class="st1" d="M667.3,27.3c0,0.5-0.1,1.1-0.3,1.6c-0.2,0.5-0.5,1-1,1.4c-0.4,0.4-1,0.7-1.7,1s-1.5,0.4-2.5,0.4
			c-0.4,0-1,0-1.7,0c-0.7,0-1.6,0-2.6,0V18c0.6,0,1.4,0,2.3-0.1c0.9,0,1.7,0,2.6,0c1.4,0,2.6,0.3,3.4,0.8c0.8,0.6,1.2,1.4,1.2,2.5
			c0,0.6-0.2,1.2-0.5,1.7c-0.3,0.5-0.8,0.9-1.4,1.2v0.1c0.7,0.2,1.2,0.6,1.6,1.1S667.3,26.6,667.3,27.3z M663.7,21.8
			c0-0.4-0.1-0.8-0.4-1c-0.3-0.2-0.8-0.4-1.4-0.4c-0.2,0-0.5,0-0.6,0s-0.4,0-0.6,0v3c0.1,0,0.3,0,0.4,0s0.3,0,0.5,0
			c0.8,0,1.3-0.1,1.6-0.4C663.5,22.7,663.7,22.3,663.7,21.8z M664,27.3c0-0.5-0.2-0.9-0.6-1.2c-0.4-0.3-1-0.4-1.7-0.4
			c-0.1,0-0.2,0-0.5,0c-0.2,0-0.4,0-0.5,0v3.2c0.1,0,0.3,0,0.5,0c0.2,0,0.5,0,0.7,0c0.7,0,1.2-0.1,1.6-0.4
			C663.8,28.2,664,27.8,664,27.3z"/>
		<path class="st1" d="M678.5,26.3c0,0.8-0.1,1.5-0.4,2.2c-0.3,0.7-0.6,1.2-1.1,1.7c-0.5,0.5-1,0.8-1.7,1.1
			c-0.6,0.3-1.3,0.4-2.1,0.4c-0.7,0-1.4-0.1-2-0.3c-0.6-0.2-1.1-0.5-1.5-0.9c-0.4-0.4-0.7-0.9-1-1.5c-0.2-0.6-0.3-1.4-0.3-2.3
			c0-0.8,0.1-1.5,0.4-2.2c0.3-0.7,0.6-1.2,1.1-1.7c0.5-0.5,1-0.8,1.7-1.1c0.6-0.3,1.3-0.4,2.1-0.4c1.5,0,2.7,0.4,3.5,1.2
			C678.1,23.4,678.5,24.6,678.5,26.3z M675.4,26.5c0-0.9-0.1-1.5-0.4-1.9s-0.7-0.6-1.4-0.6c-0.2,0-0.5,0-0.7,0.1
			c-0.2,0.1-0.4,0.2-0.6,0.4s-0.3,0.5-0.4,0.8c-0.1,0.3-0.2,0.7-0.2,1.1c0,0.9,0.1,1.6,0.4,2c0.3,0.4,0.8,0.6,1.4,0.6
			c0.6,0,1-0.2,1.3-0.7C675.2,28,675.4,27.3,675.4,26.5z"/>
		<path class="st1" d="M680.2,31.5V16.9h3v14.6H680.2z"/>
		<path class="st1" d="M691.4,31.5c0-0.2,0-0.4,0-0.7c0-0.2,0-0.5,0.1-0.7h0c-0.3,0.5-0.6,0.9-1.1,1.2c-0.5,0.3-1.1,0.5-1.9,0.5
			c-1.2,0-2.1-0.4-2.7-1.3s-0.9-2-0.9-3.4c0-0.8,0.1-1.6,0.4-2.3c0.2-0.7,0.6-1.3,1-1.8c0.5-0.5,1-0.9,1.7-1.2
			c0.7-0.3,1.4-0.4,2.3-0.4c0.3,0,0.7,0,1,0.1v-4.5h3v14.6H691.4z M691.2,23.9c-0.3-0.1-0.7-0.1-1-0.1c-0.3,0-0.6,0-0.8,0.1
			s-0.5,0.3-0.7,0.5c-0.2,0.2-0.3,0.5-0.4,0.9c-0.1,0.4-0.2,0.8-0.2,1.4c0,1.6,0.5,2.4,1.4,2.4c0.3,0,0.5-0.1,0.7-0.2
			s0.4-0.3,0.5-0.6c0.2-0.3,0.3-0.6,0.4-0.9c0.1-0.4,0.1-0.7,0.1-1.1V23.9z"/>
	</g>
	<rect x="490" y="-52" class="st10" width="1" height="122"/>
</g>
<g>
	<g>
		<path d="M171.8,347.6c-0.6-0.5-1.2-0.5-1.8,0c-0.4,0.4-0.8,0.8-1.3,1.3c-0.1,0.1-0.2,0.1-0.3,0.1c-0.3-0.1-0.6-0.3-0.8-0.4
			c-1.2-0.8-2.2-1.8-3.1-2.9c-0.4-0.6-0.8-1.1-1.1-1.8c-0.1-0.1,0-0.2,0.1-0.3c0.4-0.4,0.8-0.8,1.2-1.2c0.6-0.6,0.6-1.3,0-1.8
			c-0.3-0.3-0.7-0.7-1-1c-0.3-0.3-0.7-0.7-1-1c-0.6-0.5-1.2-0.5-1.8,0c-0.4,0.4-0.8,0.8-1.3,1.3c-0.4,0.4-0.6,0.8-0.6,1.4
			c-0.1,0.9,0.1,1.7,0.5,2.5c0.6,1.7,1.6,3.2,2.7,4.5c1.6,1.8,3.4,3.3,5.6,4.4c1,0.5,2,0.8,3.1,0.9c0.8,0,1.4-0.1,1.9-0.7
			c0.4-0.4,0.8-0.8,1.1-1.2c0.6-0.6,0.6-1.3,0-1.8C173.2,349,172.5,348.3,171.8,347.6z"/>
		<path d="M171.1,344.8l1.3-0.2c-0.2-1.2-0.8-2.3-1.6-3.1c-0.9-0.9-2.1-1.5-3.3-1.7l-0.2,1.3c1,0.1,1.9,0.6,2.6,1.3
			C170.6,343,171,343.9,171.1,344.8z"/>
		<path d="M173.2,339.1c-1.5-1.5-3.4-2.5-5.5-2.8l-0.2,1.3c1.8,0.3,3.5,1.1,4.8,2.4c1.2,1.2,2,2.8,2.3,4.5l1.3-0.2
			C175.6,342.4,174.6,340.6,173.2,339.1z"/>
	</g>
</g>
<path d="M145.7,343.3c0-4.2-3.4-7.5-7.5-7.5c-4.2,0-7.5,3.4-7.5,7.5c0,2.1,0.8,3.9,2.2,5.3h0l0,0c0,0,0,0,0,0l5.3,5.4l5.3-5.3
	c0,0,0,0,0,0l0,0h0C144.9,347.2,145.7,345.4,145.7,343.3z M138.1,346.2c-1.6,0-2.9-1.3-2.9-2.9s1.3-2.9,2.9-2.9
	c1.6,0,2.9,1.3,2.9,2.9S139.8,346.2,138.1,346.2z"/>
<g>
	<g>
		<path class="st17" d="M12.2-26.4c0,0.7-0.1,1.4-0.4,2.1c-0.3,0.7-0.7,1.2-1.2,1.7c-0.5,0.5-1.1,0.9-1.9,1.2C8-21.1,7.1-21,6.2-21
			c-0.1,0-0.2,0-0.4,0c-0.1,0-0.3,0-0.5,0v5.1H1.8v-15.3c0.7,0,1.4-0.1,2.1-0.1c0.7,0,1.5,0,2.3,0c2,0,3.5,0.4,4.5,1.3
			C11.7-29.2,12.2-28,12.2-26.4z M8.6-26.3c0-0.7-0.2-1.2-0.6-1.6c-0.4-0.4-1-0.6-1.9-0.6c-0.1,0-0.2,0-0.4,0c-0.1,0-0.2,0-0.4,0
			v4.5c0.1,0,0.2,0,0.3,0s0.2,0,0.3,0c0.7,0,1.4-0.2,1.9-0.6C8.3-24.9,8.6-25.5,8.6-26.3z"/>
		<path class="st17" d="M30-17.1c-1.2,1-2.7,1.5-4.8,1.5c-1.2,0-2.2-0.2-3-0.5c-0.8-0.3-1.4-0.7-1.9-1.2c-0.5-0.5-0.8-1.1-0.9-1.8
			c-0.2-0.7-0.3-1.4-0.3-2.2v-9.9h3.5v9.7c0,0.5,0,0.9,0.1,1.2c0.1,0.4,0.2,0.7,0.4,0.9c0.2,0.3,0.5,0.5,0.8,0.6
			c0.4,0.1,0.8,0.2,1.4,0.2c1,0,1.7-0.2,2.1-0.7c0.4-0.5,0.6-1.3,0.6-2.4v-9.5h3.5v9.3C31.7-19.8,31.1-18.2,30-17.1z"/>
		<path class="st17" d="M51.6-20.7c0,0.6-0.1,1.2-0.4,1.8c-0.2,0.6-0.6,1.1-1.1,1.5c-0.5,0.5-1.2,0.8-2,1.1
			c-0.8,0.3-1.8,0.4-2.9,0.4c-0.5,0-1.1,0-2,0c-0.8,0-1.8,0-2.9,0v-15.3c0.7,0,1.6-0.1,2.6-0.1c1,0,2,0,2.9,0c1.7,0,2.9,0.3,3.9,1
			c0.9,0.6,1.4,1.6,1.4,2.9c0,0.7-0.2,1.4-0.5,2c-0.4,0.6-0.9,1-1.6,1.3v0.1c0.8,0.2,1.4,0.6,1.9,1.3C51.4-22.2,51.6-21.5,51.6-20.7
			z M47.4-26.9c0-0.5-0.2-0.9-0.5-1.1c-0.3-0.3-0.9-0.4-1.6-0.4c-0.3,0-0.5,0-0.7,0c-0.2,0-0.4,0-0.6,0v3.4c0.2,0,0.3,0,0.5,0
			c0.2,0,0.4,0,0.6,0c0.9,0,1.5-0.2,1.9-0.5C47.2-25.9,47.4-26.4,47.4-26.9z M47.8-20.7c0-0.6-0.2-1-0.7-1.3c-0.5-0.3-1.1-0.5-2-0.5
			c-0.1,0-0.3,0-0.6,0c-0.3,0-0.5,0-0.6,0v3.6c0.2,0,0.4,0,0.6,0.1s0.5,0,0.8,0c0.8,0,1.4-0.2,1.8-0.5
			C47.6-19.6,47.8-20.1,47.8-20.7z"/>
		<path class="st17" d="M59.1-15.9v-15.3h3.5V-19h4.6v3.1H59.1z"/>
		<path class="st17" d="M74.4-15.9v-15.3H78v15.3H74.4z"/>
		<path class="st17" d="M94.9-15.9c-0.7,0.1-1.3,0.2-2,0.2c-1.4,0-2.6-0.2-3.5-0.7c-0.9-0.4-1.7-1-2.2-1.7c-0.5-0.7-0.9-1.5-1.1-2.4
			c-0.2-0.9-0.3-1.7-0.3-2.6c0-1.2,0.2-2.4,0.5-3.4c0.3-1,0.8-1.9,1.5-2.6s1.5-1.3,2.4-1.7s2.1-0.6,3.4-0.6c0.5,0,1.1,0,1.6,0.1
			c0.5,0.1,1.1,0.2,1.5,0.3l-0.5,3.2c-0.9-0.3-1.8-0.5-2.7-0.5c-1.2,0-2.2,0.4-2.8,1.2c-0.7,0.8-1,1.9-1,3.3c0,1.5,0.3,2.7,1,3.5
			c0.6,0.8,1.7,1.2,3,1.2c0.4,0,0.8,0,1.3-0.1c0.5-0.1,0.9-0.2,1.3-0.4l0.5,3.1C96.1-16.1,95.5-16,94.9-15.9z"/>
		<path class="st17" d="M124.1-20.8c0,0.7-0.1,1.4-0.4,2s-0.7,1.2-1.2,1.6c-0.5,0.5-1.2,0.8-1.9,1.1c-0.7,0.3-1.6,0.4-2.5,0.4
			c-0.7,0-1.4,0-2-0.1c-0.6-0.1-1.2-0.2-1.7-0.3l0.3-3.4c0.5,0.2,1,0.4,1.6,0.5c0.6,0.1,1.2,0.2,1.8,0.2c0.6,0,1.1-0.1,1.5-0.4
			c0.4-0.3,0.6-0.7,0.6-1.2c0-0.4-0.2-0.8-0.5-1c-0.3-0.2-0.7-0.5-1.1-0.6c-0.5-0.2-0.9-0.4-1.5-0.6c-0.5-0.2-1-0.5-1.5-0.8
			c-0.5-0.3-0.8-0.8-1.1-1.3s-0.5-1.2-0.5-2.1c0-0.7,0.1-1.4,0.4-2s0.7-1.1,1.2-1.5c0.5-0.4,1.1-0.8,1.9-1c0.8-0.2,1.6-0.3,2.6-0.3
			c0.4,0,0.8,0,1.4,0.1c0.5,0,1,0.1,1.4,0.2l-0.3,3.1c-0.9-0.3-1.7-0.5-2.6-0.5c-0.7,0-1.3,0.1-1.6,0.4c-0.3,0.3-0.5,0.6-0.5,1.1
			c0,0.4,0.2,0.7,0.5,1c0.3,0.2,0.7,0.5,1.2,0.7c0.5,0.2,1,0.4,1.5,0.6c0.5,0.2,1,0.5,1.5,0.8c0.5,0.3,0.8,0.8,1.2,1.3
			C124-22.2,124.1-21.6,124.1-20.8z"/>
		<path class="st17" d="M140-15.9c-0.7,0.1-1.3,0.2-2,0.2c-1.4,0-2.6-0.2-3.5-0.7c-0.9-0.4-1.7-1-2.2-1.7c-0.5-0.7-0.9-1.5-1.1-2.4
			c-0.2-0.9-0.3-1.7-0.3-2.6c0-1.2,0.2-2.4,0.5-3.4c0.3-1,0.8-1.9,1.5-2.6c0.7-0.7,1.5-1.3,2.4-1.7s2.1-0.6,3.4-0.6
			c0.5,0,1.1,0,1.6,0.1c0.5,0.1,1.1,0.2,1.5,0.3l-0.5,3.2c-0.9-0.3-1.8-0.5-2.7-0.5c-1.2,0-2.2,0.4-2.8,1.2c-0.7,0.8-1,1.9-1,3.3
			c0,1.5,0.3,2.7,1,3.5c0.6,0.8,1.7,1.2,3,1.2c0.4,0,0.8,0,1.3-0.1c0.5-0.1,0.9-0.2,1.3-0.4l0.5,3.1C141.3-16.1,140.7-16,140-15.9z"
			/>
		<path class="st17" d="M158.7-15.9v-6.4h-5.6v6.4h-3.5v-15.3h3.5v5.9h5.6v-5.9h3.5v15.3H158.7z"/>
		<path class="st17" d="M184.8-23.8c0,1.3-0.2,2.4-0.6,3.4c-0.4,1-0.9,1.9-1.6,2.6c-0.7,0.7-1.5,1.3-2.4,1.6c-0.9,0.4-1.9,0.6-3,0.6
			c-1.2,0-2.2-0.2-3.1-0.5c-0.9-0.4-1.6-0.9-2.2-1.5c-0.6-0.7-1-1.5-1.3-2.4c-0.3-1-0.4-2-0.4-3.2c0-1.2,0.2-2.4,0.6-3.4
			c0.4-1,0.9-1.9,1.6-2.6c0.7-0.7,1.5-1.3,2.4-1.6c0.9-0.4,1.9-0.6,3-0.6c1,0,2,0.2,2.8,0.5c0.9,0.3,1.6,0.8,2.2,1.4
			c0.6,0.6,1.1,1.4,1.5,2.4C184.6-26.3,184.8-25.2,184.8-23.8z M181.1-23.6c0-1.6-0.3-2.7-0.9-3.5c-0.6-0.8-1.5-1.2-2.7-1.2
			c-0.5,0-0.9,0.1-1.3,0.3c-0.4,0.2-0.8,0.5-1.1,0.8c-0.3,0.4-0.6,0.9-0.8,1.4c-0.2,0.6-0.3,1.3-0.3,2.1c0,1.5,0.3,2.7,0.9,3.5
			c0.6,0.9,1.5,1.3,2.7,1.3c0.4,0,0.9-0.1,1.3-0.3c0.4-0.2,0.8-0.4,1.2-0.8s0.6-0.9,0.9-1.5C181-22,181.1-22.7,181.1-23.6z"/>
		<path class="st17" d="M206.3-23.8c0,1.3-0.2,2.4-0.6,3.4c-0.4,1-0.9,1.9-1.6,2.6c-0.7,0.7-1.5,1.3-2.4,1.6c-0.9,0.4-1.9,0.6-3,0.6
			c-1.2,0-2.2-0.2-3.1-0.5c-0.9-0.4-1.6-0.9-2.2-1.5c-0.6-0.7-1-1.5-1.3-2.4c-0.3-1-0.4-2-0.4-3.2c0-1.2,0.2-2.4,0.6-3.4
			c0.4-1,0.9-1.9,1.6-2.6c0.7-0.7,1.5-1.3,2.4-1.6c0.9-0.4,1.9-0.6,3-0.6c1,0,2,0.2,2.8,0.5c0.9,0.3,1.6,0.8,2.2,1.4
			c0.6,0.6,1.1,1.4,1.5,2.4C206.1-26.3,206.3-25.2,206.3-23.8z M202.6-23.6c0-1.6-0.3-2.7-0.9-3.5c-0.6-0.8-1.5-1.2-2.7-1.2
			c-0.5,0-0.9,0.1-1.3,0.3c-0.4,0.2-0.8,0.5-1.1,0.8c-0.3,0.4-0.6,0.9-0.8,1.4c-0.2,0.6-0.3,1.3-0.3,2.1c0,1.5,0.3,2.7,0.9,3.5
			c0.6,0.9,1.5,1.3,2.7,1.3c0.4,0,0.9-0.1,1.3-0.3c0.4-0.2,0.8-0.4,1.2-0.8c0.3-0.4,0.6-0.9,0.9-1.5C202.5-22,202.6-22.7,202.6-23.6
			z"/>
		<path class="st17" d="M213.7-15.9v-15.3h3.5V-19h4.6v3.1H213.7z"/>
		<path class="st17" d="M238.6-20.8c0,0.7-0.1,1.4-0.4,2s-0.7,1.2-1.2,1.6c-0.5,0.5-1.2,0.8-1.9,1.1c-0.7,0.3-1.6,0.4-2.5,0.4
			c-0.7,0-1.4,0-2-0.1c-0.6-0.1-1.2-0.2-1.7-0.3l0.3-3.4c0.5,0.2,1,0.4,1.6,0.5c0.6,0.1,1.2,0.2,1.8,0.2c0.6,0,1.1-0.1,1.5-0.4
			c0.4-0.3,0.6-0.7,0.6-1.2c0-0.4-0.2-0.8-0.5-1c-0.3-0.2-0.7-0.5-1.1-0.6c-0.5-0.2-0.9-0.4-1.5-0.6c-0.5-0.2-1-0.5-1.5-0.8
			c-0.5-0.3-0.8-0.8-1.1-1.3c-0.3-0.5-0.5-1.2-0.5-2.1c0-0.7,0.1-1.4,0.4-2c0.3-0.6,0.7-1.1,1.2-1.5c0.5-0.4,1.1-0.8,1.9-1
			c0.8-0.2,1.6-0.3,2.6-0.3c0.4,0,0.8,0,1.4,0.1c0.5,0,1,0.1,1.4,0.2l-0.3,3.1c-0.9-0.3-1.7-0.5-2.6-0.5c-0.7,0-1.3,0.1-1.6,0.4
			c-0.3,0.3-0.5,0.6-0.5,1.1c0,0.4,0.2,0.7,0.5,1c0.3,0.2,0.7,0.5,1.2,0.7c0.5,0.2,1,0.4,1.5,0.6c0.5,0.2,1,0.5,1.5,0.8
			c0.5,0.3,0.8,0.8,1.2,1.3C238.4-22.2,238.6-21.6,238.6-20.8z"/>
	</g>
	<g>
		<g>
			<path class="st3" d="M106.3-57.8c-3.8,0-7-3-7-6.7c0-3.7,3.2-6.7,7-6.7c3.9,0,7.1,3,7.1,6.7C113.4-60.9,110.2-57.8,106.3-57.8
				 M106.3-40.8c-3.8,0-7-3-7-6.7c0-3.7,3.2-6.7,7-6.7c3.9,0,7.1,3,7.1,6.7C113.4-43.8,110.2-40.8,106.3-40.8"/>
			<polygon class="st17" points="19.6,-41.4 9.5,-54.7 9.5,-41.4 1.8,-41.4 1.8,-70.6 9.5,-70.6 9.5,-58.1 19.6,-70.6 28.9,-70.6 
				17.1,-56.6 29.7,-41.4 			"/>
			<rect x="31.8" y="-70.6" class="st17" width="7.6" height="29.1"/>
			<path class="st17" d="M61.3-60.6c0,2.9-2.2,4.5-5.5,4.5c-0.7,0-1.8-0.1-2.4-0.2v-8.7c0.7-0.1,1.8-0.1,2.7-0.1
				C59.6-65,61.3-63,61.3-60.6 M69.5-61c0-6.2-4.6-9.8-12.7-9.8c-3.8,0-8.2,0.1-10.9,0.2v29.1h7.6v-9c0.7,0.1,1.9,0.1,2.5,0.1
				C63.8-50.3,69.5-54.4,69.5-61"/>
			<path class="st17" d="M87.5-60.6c0,2.9-2.2,4.5-5.5,4.5c-0.7,0-1.8-0.1-2.4-0.2v-8.7c0.7-0.1,1.8-0.1,2.7-0.1
				C85.8-65,87.5-63,87.5-60.6 M95.6-61c0-6.2-4.6-9.8-12.7-9.8c-3.8,0-8.2,0.1-10.9,0.2v29.1h7.6v-9c0.7,0.1,1.9,0.1,2.5,0.1
				C90-50.3,95.6-54.4,95.6-61"/>
		</g>
		<g>
			<path class="st17" d="M134.3-63.6v22.2h-8v-22.2H120v-6.9h20.6v6.9H134.3z"/>
			<path class="st17" d="M143-41.4v-29h17v6.8h-9v4.1h6.7v6.5H151v4.7h9v6.9H143z"/>
			<path class="st17" d="M208.3-41.4l-1.5-4.7h-8.9l-1.5,4.7h-7.9l8.7-29H208l9.1,29H208.3z M202.3-62.6L200-52.4h5.2l-2.3-10.2
				L202.3-62.6z"/>
			<path class="st17" d="M238.6-50.9c0,1.4-0.3,2.8-0.9,4c-0.6,1.2-1.4,2.3-2.5,3.2c-1.1,0.9-2.3,1.6-3.8,2.1
				c-1.4,0.5-3,0.8-4.8,0.8c-1.5,0-2.8-0.1-3.9-0.2c-1.1-0.1-2.2-0.3-3.3-0.6l0-7.9c1,0.4,2.7,1,3.8,1.2c1.1,0.3,2.3,0.4,3.6,0.4
				c0.8,0,1.4-0.2,2-0.5c0.5-0.3,0.8-0.9,0.8-1.5c0-0.7-0.3-1.2-0.8-1.6c-0.5-0.4-1.2-0.8-2-1.1c-0.8-0.3-1.7-0.6-2.6-1
				c-0.9-0.4-1.8-0.9-2.6-1.5c-0.8-0.6-1.5-1.5-2-2.5c-0.5-1-0.8-2.4-0.8-4c0-2.9,1.1-5.2,3.2-6.9c2.1-1.7,5.1-2.6,8.9-2.6
				c0.7,0,1.6,0,2.6,0.1c1,0.1,1.9,0.2,2.8,0.4l-0.1,7.1c-0.8-0.3-2.2-0.7-3-0.9c-0.8-0.1-1.6-0.2-2.5-0.2c-1.1,0-1.9,0.2-2.4,0.5
				c-0.5,0.4-0.8,0.8-0.8,1.4c0,0.6,0.3,1.1,0.8,1.5c0.6,0.4,1.2,0.7,2.1,1.1c0.8,0.3,1.7,0.7,2.7,1.1c1,0.4,1.9,0.9,2.7,1.6
				c0.8,0.7,1.5,1.5,2.1,2.5C238.3-53.7,238.6-52.5,238.6-50.9z"/>
			<path class="st17" d="M177.9-41.4l-3.4-8.8l-3.4,8.8h-8.8l7.3-14.7l-7.3-14.3h8.7l3.4,8.6l3.4-8.6h9.3l-7.6,14.3l7.6,14.7H177.9z
				"/>
		</g>
	</g>
	<rect x="1.4" y="-37.4" class="st3" width="237.1" height="1.7"/>
</g>
<g>
	<g>
		<path class="st2" d="M14.3,169.5c-0.2-0.7-0.5-1.3-0.8-1.9c-0.4-0.9-1.1-1.8-1.9-2.2c-2-0.8-3.3-2.3-4.7-3.8
			c-0.6-0.7-1.2-1.8-1.9-1.9c-1.9-0.3-2.8-1.8-3.9-2.9c-0.5-0.5-0.6-1.3-1.1-2.3c1,0,1.6,0,2.2,0c7.4,0,14.7-0.1,22.1-0.1
			c1.6,0,2.1-0.4,2.1-2c0.1-12,0.2-24,0.4-36h22c0.1,4.9,0.2,9.9,0.2,14.8c0,1.1,0.3,1.8,1.3,2.1c2.4,0.8,4.8,1.7,7.3,2.3
			c1.4,0.4,3,0.3,4.4,0.6c3.5,0.6,7.3,0.7,10.5,2.5c0.1,0.1,0.3,0.1,0.5,0c2.4-0.3,4.8-0.8,7.1-0.7c3.1,0.2,6.3,0.6,9.3,1.5
			c3.4,1,3.3,1.2,3.4,4.7c0.1,4.9-0.6,10,2.5,14.4c0.4,0.6,0.9,1.3,1.3,2v3.2c-0.2,1.1-0.3,2.2-0.5,3.2c0,0,0.1,0.8,0,1.3
			c-0.1,0.9-0.3,1.9-0.4,2.8c-0.1,0.7-0.3,1.4-0.5,2.1c-0.3,0-0.5,0-0.8,0c-0.5,0.6-1.1,1-2.1,1.2c-1.3,0.3-2.5,1-3.7,1.5
			c-0.1,0-0.3,0-0.5,0c0.2-0.3-1.4,0.6-1.7,0.7c-1.6,0.7-1.7,2.6-3,3.4c-2.2,1.4-4.4,2.7-6.8,4.2c-2,0.1-2.9,0.1-3.7,0.6
			c-0.4,0.9-0.7,1.8-1.2,2.7c-0.9,1.5-2,2.9-2.9,4.4c-0.6,1-0.5,2.8-1.2,4.5c-0.1,0.3-0.4,0.8-0.3,1c1,2.2,0.5,5,2.6,6.9
			c0.2,0.2,0.1,0.7,0.1,1.1c-1.2,0-2.3,0.2-3.3,0c-2.7-0.7-5.3-1.5-8-2.3c-2.1-0.6-3.6-1.6-4.1-3.8c-0.2-1-0.8-1.9-1.3-2.7
			c-2.4-4.4-5.4-8.5-7.2-13.1c-1.6-4.1-4.9-6.5-7.5-9.6c-0.2-0.2-0.6-0.3-0.9-0.3c-0.8,0-1.6-0.2-2.3-0.3c-1.4,0-2.8,0-4.2,0
			c-0.3,0.1-0.5,0.2-0.8,0.4c-1.2,0.7-1.8,1.2-2.1,2.4c-0.1,0.5-0.2,1-0.3,1.4c-0.6,2.5-2.2,3.3-4.3,2.1c-2-1-4-2-5.9-3.3
			c-0.8-0.5-1.6-1.5-2-2.4c-0.1-0.3-0.3-0.6-0.4-0.9c-0.2-0.2-0.5-0.5-0.7-0.9c-0.2-0.6-0.1-1.1-0.1-1.3
			C14.7,170.5,14.7,170.1,14.3,169.5z"/>
	</g>
	<g>
		<path class="st3" d="M231,129c-4.5,0-8.3-3.6-8.3-8c0-4.4,3.8-8,8.3-8c4.6,0,8.4,3.6,8.4,8C239.5,125.4,235.7,129,231,129
			 M231,149.3c-4.5,0-8.3-3.6-8.3-8c0-4.4,3.8-8,8.3-8c4.6,0,8.4,3.6,8.4,8C239.5,145.7,235.7,149.3,231,149.3"/>
		<polygon class="st2" points="127.9,148.5 115.8,132.8 115.8,148.5 106.7,148.5 106.7,113.9 115.8,113.9 115.8,128.7 127.9,113.9 
			139,113.9 124.9,130.5 139.9,148.5 		"/>
		<rect x="142.5" y="113.9" class="st2" width="9.1" height="34.7"/>
		<path class="st2" d="M177.6,125.7c0,3.5-2.6,5.4-6.6,5.4c-0.8,0-2.1-0.1-2.8-0.2v-10.3c0.8-0.1,2.2-0.1,3.2-0.1
			C175.5,120.5,177.6,122.9,177.6,125.7 M187.2,125.3c0-7.4-5.5-11.6-15.2-11.6c-4.5,0-9.7,0.1-13,0.2v34.7h9.1v-10.7
			c0.8,0.1,2.3,0.1,3,0.1C180.5,137.9,187.2,133.1,187.2,125.3"/>
		<path class="st2" d="M208.7,125.7c0,3.5-2.6,5.4-6.6,5.4c-0.8,0-2.1-0.1-2.8-0.2v-10.3c0.8-0.1,2.2-0.1,3.2-0.1
			C206.7,120.5,208.7,122.9,208.7,125.7 M218.4,125.3c0-7.4-5.5-11.6-15.2-11.6c-4.5,0-9.7,0.1-13,0.2v34.7h9.1v-10.7
			c0.8,0.1,2.3,0.1,3,0.1C211.7,137.9,218.4,133.1,218.4,125.3"/>
	</g>
	<path class="st2" d="M122.7,161.4v24.8h-9v-24.8h-7v-7.7h23v7.7H122.7z"/>
	<path class="st2" d="M132.4,186.2v-32.5h19v7.6h-10.1v4.6h7.5v7.3h-7.5v5.3h10.1v7.8H132.4z"/>
	<path class="st2" d="M205.7,186.2l-1.7-5.3h-10l-1.6,5.3h-8.9l9.7-32.5h12.1l10.2,32.5H205.7z M198.9,162.5l-2.5,11.4h5.8
		l-2.6-11.4L198.9,162.5z"/>
	<path class="st2" d="M239.5,175.5c0,1.6-0.3,3.1-1,4.5c-0.7,1.4-1.6,2.6-2.8,3.6c-1.2,1-2.6,1.8-4.2,2.4c-1.6,0.6-3.4,0.9-5.4,0.9
		c-1.6,0-3.1-0.1-4.4-0.2c-1.3-0.1-2.5-0.3-3.7-0.6l0-8.8c1.1,0.5,3,1.1,4.2,1.4c1.2,0.3,2.6,0.4,4,0.4c0.9,0,1.6-0.2,2.2-0.6
		c0.6-0.4,0.9-1,0.9-1.7c0-0.8-0.3-1.4-0.9-1.8c-0.6-0.5-1.3-0.8-2.2-1.2c-0.9-0.3-1.9-0.7-2.9-1.1c-1.1-0.4-2-1-2.9-1.7
		c-0.9-0.7-1.6-1.6-2.2-2.8c-0.6-1.1-0.9-2.6-0.9-4.5c0-3.2,1.2-5.8,3.5-7.7c2.4-1.9,5.7-2.9,10-2.9c0.8,0,1.8,0,2.9,0.1
		c1.1,0.1,2.1,0.3,3.1,0.5l-0.1,8c-0.9-0.3-2.5-0.8-3.4-1c-0.9-0.2-1.8-0.2-2.8-0.2c-1.3,0-2.2,0.2-2.7,0.6
		c-0.6,0.4-0.8,0.9-0.8,1.6c0,0.7,0.3,1.2,0.9,1.7c0.6,0.4,1.4,0.8,2.3,1.2c0.9,0.4,1.9,0.8,3,1.2c1.1,0.5,2.1,1,3,1.8
		c0.9,0.7,1.7,1.7,2.3,2.8C239.2,172.4,239.5,173.8,239.5,175.5z"/>
	<g>
		<path class="st2" d="M114.1,194.7c0,0.5-0.1,1-0.3,1.5c-0.2,0.5-0.5,0.9-0.8,1.2c-0.4,0.4-0.8,0.6-1.3,0.8
			c-0.5,0.2-1.2,0.3-1.8,0.3c-0.1,0-0.2,0-0.3,0c-0.1,0-0.2,0-0.3,0v3.6h-2.5v-10.9c0.5,0,1,0,1.5-0.1c0.5,0,1,0,1.6,0
			c1.4,0,2.5,0.3,3.2,0.9C113.7,192.7,114.1,193.6,114.1,194.7z M111.5,194.8c0-0.5-0.1-0.8-0.4-1.1c-0.3-0.3-0.7-0.4-1.3-0.4
			c-0.1,0-0.2,0-0.3,0c-0.1,0-0.2,0-0.3,0v3.2c0.1,0,0.2,0,0.2,0c0.1,0,0.1,0,0.2,0c0.5,0,1-0.2,1.3-0.4
			C111.3,195.7,111.5,195.3,111.5,194.8z"/>
		<path class="st2" d="M124.3,201.3c-0.8,0.7-1.9,1.1-3.4,1.1c-0.9,0-1.6-0.1-2.1-0.3c-0.6-0.2-1-0.5-1.3-0.9
			c-0.3-0.4-0.5-0.8-0.7-1.3c-0.1-0.5-0.2-1-0.2-1.6v-7h2.5v6.9c0,0.3,0,0.6,0.1,0.9c0.1,0.3,0.2,0.5,0.3,0.7
			c0.1,0.2,0.3,0.3,0.6,0.4c0.3,0.1,0.6,0.1,1,0.1c0.7,0,1.2-0.2,1.5-0.5c0.3-0.3,0.5-0.9,0.5-1.7v-6.7h2.5v6.6
			C125.5,199.4,125.1,200.5,124.3,201.3z"/>
		<path class="st2" d="M136.8,198.7c0,0.4-0.1,0.9-0.2,1.3c-0.2,0.4-0.4,0.8-0.8,1.1c-0.4,0.3-0.8,0.6-1.4,0.8s-1.2,0.3-2.1,0.3
			c-0.3,0-0.8,0-1.4,0c-0.6,0-1.3,0-2.1,0v-10.9c0.5,0,1.1,0,1.8-0.1c0.7,0,1.4,0,2.1,0c1.2,0,2.1,0.2,2.7,0.7c0.7,0.5,1,1.1,1,2.1
			c0,0.5-0.1,1-0.4,1.4c-0.3,0.4-0.6,0.7-1.1,1v0c0.6,0.2,1,0.5,1.3,0.9C136.6,197.7,136.8,198.2,136.8,198.7z M133.8,194.3
			c0-0.3-0.1-0.6-0.4-0.8c-0.2-0.2-0.6-0.3-1.1-0.3c-0.2,0-0.4,0-0.5,0c-0.2,0-0.3,0-0.5,0v2.4c0.1,0,0.2,0,0.3,0c0.1,0,0.3,0,0.4,0
			c0.6,0,1.1-0.1,1.3-0.4C133.7,195.1,133.8,194.7,133.8,194.3z M134.1,198.8c0-0.4-0.2-0.7-0.5-1s-0.8-0.3-1.4-0.3
			c-0.1,0-0.2,0-0.4,0c-0.2,0-0.3,0-0.4,0v2.6c0.1,0,0.3,0,0.4,0c0.2,0,0.4,0,0.5,0c0.6,0,1-0.1,1.3-0.4
			C133.9,199.5,134.1,199.2,134.1,198.8z"/>
		<path class="st2" d="M139.6,202.1v-10.9h2.5v8.7h3.3v2.2H139.6z"/>
		<path class="st2" d="M147.7,202.1v-10.9h2.5v10.9H147.7z"/>
		<path class="st2" d="M159.5,202.2c-0.5,0.1-0.9,0.1-1.4,0.1c-1,0-1.8-0.2-2.5-0.5c-0.7-0.3-1.2-0.7-1.6-1.2
			c-0.4-0.5-0.7-1.1-0.8-1.7c-0.2-0.6-0.2-1.2-0.2-1.8c0-0.9,0.1-1.7,0.4-2.4c0.2-0.7,0.6-1.3,1.1-1.9c0.5-0.5,1-0.9,1.7-1.2
			c0.7-0.3,1.5-0.4,2.4-0.4c0.4,0,0.8,0,1.1,0.1c0.4,0,0.7,0.1,1.1,0.2l-0.3,2.3c-0.6-0.2-1.3-0.3-2-0.3c-0.9,0-1.6,0.3-2,0.9
			c-0.5,0.6-0.7,1.4-0.7,2.4c0,1.1,0.2,1.9,0.7,2.5c0.5,0.6,1.2,0.9,2.2,0.9c0.3,0,0.6,0,0.9-0.1c0.3-0.1,0.7-0.2,0.9-0.3l0.4,2.2
			C160.4,202,160,202.1,159.5,202.2z"/>
		<path class="st2" d="M175,198.7c0,0.5-0.1,1-0.3,1.4c-0.2,0.4-0.5,0.8-0.9,1.2c-0.4,0.3-0.8,0.6-1.4,0.8c-0.5,0.2-1.1,0.3-1.8,0.3
			c-0.5,0-1,0-1.4-0.1c-0.4,0-0.8-0.1-1.2-0.2l0.2-2.4c0.4,0.2,0.7,0.3,1.1,0.4c0.4,0.1,0.8,0.1,1.3,0.1c0.4,0,0.8-0.1,1-0.3
			c0.3-0.2,0.4-0.5,0.4-0.9c0-0.3-0.1-0.6-0.3-0.7c-0.2-0.2-0.5-0.3-0.8-0.5c-0.3-0.1-0.7-0.3-1-0.4c-0.4-0.1-0.7-0.3-1-0.6
			c-0.3-0.2-0.6-0.5-0.8-0.9c-0.2-0.4-0.3-0.9-0.3-1.5c0-0.5,0.1-1,0.3-1.4c0.2-0.4,0.5-0.8,0.8-1.1c0.4-0.3,0.8-0.5,1.3-0.7
			c0.5-0.2,1.1-0.2,1.8-0.2c0.3,0,0.6,0,1,0c0.4,0,0.7,0.1,1,0.2l-0.2,2.2c-0.6-0.2-1.2-0.3-1.9-0.3c-0.5,0-0.9,0.1-1.1,0.3
			c-0.2,0.2-0.4,0.4-0.4,0.7c0,0.3,0.1,0.5,0.3,0.7c0.2,0.2,0.5,0.3,0.8,0.5c0.3,0.1,0.7,0.3,1.1,0.4c0.4,0.2,0.7,0.3,1.1,0.6
			c0.3,0.2,0.6,0.5,0.8,0.9C174.9,197.7,175,198.1,175,198.7z"/>
		<path class="st2" d="M183.7,202.2c-0.5,0.1-0.9,0.1-1.4,0.1c-1,0-1.8-0.2-2.5-0.5c-0.7-0.3-1.2-0.7-1.6-1.2
			c-0.4-0.5-0.7-1.1-0.8-1.7c-0.2-0.6-0.2-1.2-0.2-1.8c0-0.9,0.1-1.7,0.4-2.4c0.2-0.7,0.6-1.3,1.1-1.9c0.5-0.5,1-0.9,1.7-1.2
			c0.7-0.3,1.5-0.4,2.4-0.4c0.4,0,0.8,0,1.1,0.1c0.4,0,0.7,0.1,1.1,0.2l-0.3,2.3c-0.6-0.2-1.3-0.3-2-0.3c-0.9,0-1.6,0.3-2,0.9
			c-0.5,0.6-0.7,1.4-0.7,2.4c0,1.1,0.2,1.9,0.7,2.5c0.5,0.6,1.2,0.9,2.2,0.9c0.3,0,0.6,0,0.9-0.1c0.3-0.1,0.7-0.2,0.9-0.3l0.4,2.2
			C184.6,202,184.1,202.1,183.7,202.2z"/>
		<path class="st2" d="M194.3,202.1v-4.5h-4v4.5h-2.5v-10.9h2.5v4.2h4v-4.2h2.5v10.9H194.3z"/>
		<path class="st2" d="M209.8,196.5c0,0.9-0.1,1.7-0.4,2.4c-0.3,0.7-0.7,1.3-1.2,1.8c-0.5,0.5-1.1,0.9-1.7,1.2
			c-0.7,0.3-1.4,0.4-2.1,0.4c-0.8,0-1.6-0.1-2.2-0.4c-0.6-0.3-1.2-0.6-1.6-1.1c-0.4-0.5-0.7-1.1-0.9-1.7c-0.2-0.7-0.3-1.4-0.3-2.3
			c0-0.9,0.1-1.7,0.4-2.4c0.3-0.7,0.7-1.3,1.2-1.8c0.5-0.5,1.1-0.9,1.7-1.2c0.7-0.3,1.4-0.4,2.1-0.4c0.7,0,1.4,0.1,2,0.3
			c0.6,0.2,1.1,0.5,1.6,1c0.4,0.4,0.8,1,1,1.7C209.7,194.8,209.8,195.6,209.8,196.5z M207.2,196.7c0-1.1-0.2-1.9-0.6-2.5
			c-0.4-0.6-1.1-0.8-1.9-0.8c-0.3,0-0.6,0.1-0.9,0.2c-0.3,0.1-0.6,0.3-0.8,0.6c-0.2,0.3-0.4,0.6-0.6,1c-0.1,0.4-0.2,0.9-0.2,1.5
			c0,1.1,0.2,1.9,0.6,2.5c0.4,0.6,1,0.9,1.9,0.9c0.3,0,0.6-0.1,0.9-0.2s0.6-0.3,0.8-0.6c0.2-0.3,0.5-0.6,0.6-1
			C207.1,197.8,207.2,197.3,207.2,196.7z"/>
		<path class="st2" d="M222.4,196.5c0,0.9-0.1,1.7-0.4,2.4c-0.3,0.7-0.7,1.3-1.2,1.8c-0.5,0.5-1.1,0.9-1.7,1.2
			c-0.7,0.3-1.4,0.4-2.1,0.4c-0.8,0-1.6-0.1-2.2-0.4c-0.6-0.3-1.2-0.6-1.6-1.1c-0.4-0.5-0.7-1.1-0.9-1.7c-0.2-0.7-0.3-1.4-0.3-2.3
			c0-0.9,0.1-1.7,0.4-2.4c0.3-0.7,0.7-1.3,1.2-1.8c0.5-0.5,1.1-0.9,1.7-1.2c0.7-0.3,1.4-0.4,2.1-0.4c0.7,0,1.4,0.1,2,0.3
			c0.6,0.2,1.1,0.5,1.6,1c0.4,0.4,0.8,1,1,1.7C222.2,194.8,222.4,195.6,222.4,196.5z M219.7,196.7c0-1.1-0.2-1.9-0.6-2.5
			c-0.4-0.6-1.1-0.8-1.9-0.8c-0.3,0-0.6,0.1-0.9,0.2c-0.3,0.1-0.6,0.3-0.8,0.6c-0.2,0.3-0.4,0.6-0.6,1c-0.1,0.4-0.2,0.9-0.2,1.5
			c0,1.1,0.2,1.9,0.6,2.5c0.4,0.6,1,0.9,1.9,0.9c0.3,0,0.6-0.1,0.9-0.2c0.3-0.1,0.6-0.3,0.8-0.6c0.2-0.3,0.5-0.6,0.6-1
			C219.6,197.8,219.7,197.3,219.7,196.7z"/>
		<path class="st2" d="M225,202.1v-10.9h2.5v8.7h3.3v2.2H225z"/>
		<path class="st2" d="M239.5,198.7c0,0.5-0.1,1-0.3,1.4c-0.2,0.4-0.5,0.8-0.9,1.2c-0.4,0.3-0.8,0.6-1.4,0.8
			c-0.5,0.2-1.1,0.3-1.8,0.3c-0.5,0-1,0-1.4-0.1c-0.4,0-0.8-0.1-1.2-0.2l0.2-2.4c0.4,0.2,0.7,0.3,1.1,0.4c0.4,0.1,0.8,0.1,1.3,0.1
			c0.4,0,0.8-0.1,1-0.3c0.3-0.2,0.4-0.5,0.4-0.9c0-0.3-0.1-0.6-0.3-0.7c-0.2-0.2-0.5-0.3-0.8-0.5s-0.7-0.3-1-0.4
			c-0.4-0.1-0.7-0.3-1-0.6c-0.3-0.2-0.6-0.5-0.8-0.9c-0.2-0.4-0.3-0.9-0.3-1.5c0-0.5,0.1-1,0.3-1.4c0.2-0.4,0.5-0.8,0.8-1.1
			c0.4-0.3,0.8-0.5,1.3-0.7c0.5-0.2,1.1-0.2,1.8-0.2c0.3,0,0.6,0,1,0c0.4,0,0.7,0.1,1,0.2l-0.2,2.2c-0.6-0.2-1.2-0.3-1.9-0.3
			c-0.5,0-0.9,0.1-1.1,0.3c-0.2,0.2-0.4,0.4-0.4,0.7c0,0.3,0.1,0.5,0.3,0.7c0.2,0.2,0.5,0.3,0.8,0.5c0.3,0.1,0.7,0.3,1.1,0.4
			c0.4,0.2,0.7,0.3,1.1,0.6c0.3,0.2,0.6,0.5,0.8,0.9C239.4,197.7,239.5,198.1,239.5,198.7z"/>
	</g>
	<path class="st2" d="M171.5,186.2l-3.8-9.8l-3.8,9.8h-9.8l8.2-16.5l-8.2-16.1h9.8l3.8,9.6l3.8-9.6h10.4l-8.6,16l8.5,16.5H171.5z"/>
</g>
<g>
	<g>
		<path d="M176.1,301.6h-8.8c-2.4,0-4.4,2-4.4,4.4v8.8c0,2.4,2,4.4,4.4,4.4h8.8c2.4,0,4.4-2,4.4-4.4V306
			C180.5,303.6,178.5,301.6,176.1,301.6z M171.7,314.1c-2,0-3.7-1.6-3.7-3.7c0-2,1.6-3.7,3.7-3.7c2,0,3.7,1.6,3.7,3.7
			C175.4,312.4,173.7,314.1,171.7,314.1z M176.5,306.7c-0.6,0-1.1-0.5-1.1-1.1s0.5-1.1,1.1-1.1s1.1,0.5,1.1,1.1
			S177.1,306.7,176.5,306.7z"/>
	</g>
</g>
</svg>
